<?xml version="1.0" encoding="utf-8"?>
<!-- Generator: Adobe Illustrator 22.0.1, SVG Export Plug-In . SVG Version: 6.00 Build 0)  -->
<!-- Title: Lock Him Up  -->
<!-- Designer: Jess A. Stubenbord January 5th 2018  -->
<!-- Dedicated: In memory of political decency  -->
<!-- Rights: Contact me@jess.pro for commercial rights information. Don't be afraid to use this in protest. Do be afraid to profiteer or slander.  -->

<svg version="1.1" id="Layer_1" xmlns="http://www.w3.org/2000/svg" xmlns:xlink="http://www.w3.org/1999/xlink" x="0px" y="0px"
	 viewBox="0 0 595.3 841.9" style="enable-background:new 0 0 595.3 841.9;" xml:space="preserve">
<style type="text/css">
	.st0{fill:#F58573;}
	.st1{fill:url(#SVGID_1_);}
	.st2{fill:#F15E57;}
	.st3{fill:#2F2F30;}
</style>
<rect class="st0" width="595.3" height="839"/>
<linearGradient id="SVGID_1_" gradientUnits="userSpaceOnUse" x1="-316.3776" y1="25.5868" x2="523.6641" y2="25.5868" gradientTransform="matrix(0 1 1 0 272.0632 316.3776)">
	<stop  offset="0" style="stop-color:#F58573"/>
	<stop  offset="0.8603" style="stop-color:#F15E57"/>
</linearGradient>
<polygon class="st1" points="0,840 0,0 595.3,0 595.3,840 "/>
<g>
	<g>
		<path class="st2" d="M22,656.5h21l-8.2,58.2h19.3l-3,21.4H10.8L22,656.5z"/>
		<path class="st2" d="M92.5,654.4c18.2,0,24.9,17.1,21.4,41.9c-3.5,24.8-15,41.9-33.3,41.9c-18.2,0-24.9-17.1-21.4-41.9
			C62.8,671.5,74.3,654.4,92.5,654.4z M83.6,717.5c3.2,0,6-2.8,8.6-21.2c2.5-18,0.7-21.2-2.6-21.2c-3.4,0-6.2,3.2-8.6,21.2
			C78.3,714.7,80.4,717.5,83.6,717.5z"/>
		<path class="st2" d="M168,706.6c-1.5,10.9-5.6,18.9-10.9,24c-5.2,5.1-11.7,7.5-18.3,7.5c-18.5,0-24.7-17-21.2-42.2
			c3-24.8,15.2-41.6,33.1-41.6c13.3,0,23.4,8.2,20.2,31.5h-19.2c1-9-1-10.8-3.5-10.8c-5.4,0-7.2,8.4-8.9,21.2
			c-1.8,12.1-2.6,21.2,2.7,21.2c2.7,0,4.9-2.4,6.4-10.8L168,706.6L168,706.6z"/>
		<path class="st2" d="M180.6,656.5h20.5l-4.8,34.2h0.1l15.5-34.2H234L214.7,694l10.2,42.1h-22.7l-7.1-35.7H195l-5.1,35.7h-20.5
			L180.6,656.5z"/>
		<path class="st2" d="M287.5,706.8h-8.9l-4.2,29.3h-21l11.2-79.6h21l-3.7,26.9h8.9l3.7-26.9h21l-11.2,79.6h-21L287.5,706.8z"/>
		<path class="st2" d="M323,656.5h21l-11.2,79.6h-21L323,656.5z"/>
		<path class="st2" d="M400.4,679.2h-0.1l-15.5,56.9h-19.2l0.6-56.9H366l-8.1,56.9h-17.7l11.2-79.6h29.1l-0.9,47.4h0.1l12.5-47.4
			h29.1l-11.2,79.6h-17.7L400.4,679.2z"/>
		<path class="st2" d="M497,709.4c-2.7,19.2-13.2,28.8-29.2,28.8s-23.8-9.6-21.1-28.8l7.5-52.9h21l-7.3,51.6
			c-0.9,6.3,0.7,8.7,2.9,8.7c2.2,0,4.5-2.4,5.4-8.7l7.3-51.6h21L497,709.4z"/>
		<path class="st2" d="M511.6,656.5h30.8c12.7,0,17.2,11.1,15.1,26.1c-2.3,15.9-10.6,26.7-25.4,26.7h-6.9l-3.8,26.8h-21L511.6,656.5
			z M528.7,691.2c5.4,0,7.8-3,8.6-8.6s-0.6-8-5.1-8H530l-2.3,16.6H528.7z"/>
		<path class="st2" d="M558.1,718h17.7l-2.6,18.1h-17.7L558.1,718z M565.1,656.5h21L575,712.8h-14.7L565.1,656.5z"/>
	</g>
	<g>
		<path class="st2" d="M22,565h21l-8.2,58.2h19.3l-3,21.4H10.8L22,565z"/>
		<path class="st2" d="M92.5,562.9c18.2,0,24.9,17.1,21.4,41.9c-3.5,24.8-15,41.9-33.3,41.9c-18.2,0-24.9-17.1-21.4-41.9
			C62.8,580,74.3,562.9,92.5,562.9z M83.6,626c3.2,0,6-2.8,8.6-21.2c2.5-18,0.7-21.2-2.6-21.2c-3.4,0-6.2,3.2-8.6,21.2
			C78.3,623.2,80.4,626,83.6,626z"/>
		<path class="st2" d="M168,615.2c-1.5,10.9-5.6,18.9-10.9,24c-5.2,5.1-11.7,7.5-18.3,7.5c-18.5,0-24.7-17-21.2-42.2
			c3-24.8,15.2-41.6,33.1-41.6c13.3,0,23.4,8.2,20.2,31.5h-19.2c1-9-1-10.8-3.5-10.8c-5.4,0-7.2,8.4-8.9,21.2
			c-1.8,12.1-2.6,21.2,2.7,21.2c2.7,0,4.9-2.4,6.4-10.8L168,615.2L168,615.2z"/>
		<path class="st2" d="M180.6,565h20.5l-4.8,34.2h0.1L212,565h22.1l-19.4,37.5l10.2,42.1h-22.7l-7.1-35.7H195l-5.1,35.7h-20.5
			L180.6,565z"/>
		<path class="st2" d="M287.5,615.3h-8.9l-4.2,29.3h-21l11.2-79.6h21l-3.7,26.9h8.9l3.7-26.9h21l-11.2,79.6h-21L287.5,615.3z"/>
		<path class="st2" d="M323,565h21l-11.2,79.6h-21L323,565z"/>
		<path class="st2" d="M400.4,587.7h-0.1l-15.5,56.9h-19.2l0.6-56.9H366l-8.1,56.9h-17.7l11.2-79.6h29.1l-0.9,47.4h0.1l12.5-47.4
			h29.1l-11.2,79.6h-17.7L400.4,587.7z"/>
		<path class="st2" d="M497,617.9c-2.7,19.2-13.2,28.8-29.2,28.8s-23.8-9.6-21.1-28.8l7.5-52.9h21l-7.3,51.6
			c-0.9,6.3,0.7,8.7,2.9,8.7c2.2,0,4.5-2.4,5.4-8.7l7.3-51.6h21L497,617.9z"/>
		<path class="st2" d="M511.6,565h30.8c12.7,0,17.2,11.1,15.1,26.1c-2.3,15.9-10.6,26.7-25.4,26.7h-6.9l-3.8,26.8h-21L511.6,565z
			 M528.7,599.7c5.4,0,7.8-3,8.6-8.6s-0.6-8-5.1-8H530l-2.3,16.6H528.7z"/>
		<path class="st2" d="M558.1,626.5h17.7l-2.6,18.1h-17.7L558.1,626.5z M565.1,565h21L575,621.3h-14.7L565.1,565z"/>
	</g>
	<g>
		<path class="st2" d="M22,473.9h21l-8.2,58.2h19.3l-3,21.4H10.8L22,473.9z"/>
		<path class="st2" d="M92.5,471.8c18.2,0,24.9,17.1,21.4,41.9c-3.5,24.8-15,41.9-33.3,41.9c-18.2,0-24.9-17.1-21.4-41.9
			C62.8,488.9,74.3,471.8,92.5,471.8z M83.6,534.8c3.2,0,6-2.8,8.6-21.2c2.5-18,0.7-21.2-2.6-21.2c-3.4,0-6.2,3.2-8.6,21.2
			C78.3,532.1,80.4,534.8,83.6,534.8z"/>
		<path class="st2" d="M168,524c-1.5,10.9-5.6,18.9-10.9,24c-5.2,5.1-11.7,7.5-18.3,7.5c-18.5,0-24.7-17-21.2-42.2
			c3-24.8,15.2-41.6,33.1-41.6c13.3,0,23.4,8.2,20.2,31.5h-19.2c1-9-1-10.8-3.5-10.8c-5.4,0-7.2,8.4-8.9,21.2
			c-1.8,12.1-2.6,21.2,2.7,21.2c2.7,0,4.9-2.4,6.4-10.8H168z"/>
		<path class="st2" d="M180.6,473.9h20.5l-4.8,34.2h0.1l15.5-34.2H234l-19.4,37.5l10.2,42.1h-22.7l-7.1-35.7h-0.1l-5.1,35.7h-20.5
			L180.6,473.9z"/>
		<path class="st2" d="M287.5,524.1h-8.9l-4.2,29.3h-21l11.2-79.6h21l-3.7,26.9h8.9l3.7-26.9h21l-11.2,79.6h-21L287.5,524.1z"/>
		<path class="st2" d="M323,473.9h21l-11.2,79.6h-21L323,473.9z"/>
		<path class="st2" d="M400.4,496.6h-0.1l-15.5,56.9h-19.2l0.6-56.9H366l-8.1,56.9h-17.7l11.2-79.6h29.1l-0.9,47.4h0.1l12.5-47.4
			h29.1l-11.2,79.6h-17.7L400.4,496.6z"/>
		<path class="st2" d="M497,526.8c-2.7,19.2-13.2,28.8-29.2,28.8s-23.8-9.6-21.1-28.8l7.5-52.9h21l-7.3,51.6
			c-0.9,6.3,0.7,8.7,2.9,8.7c2.2,0,4.5-2.4,5.4-8.7l7.3-51.6h21L497,526.8z"/>
		<path class="st2" d="M511.6,473.9h30.8c12.7,0,17.2,11.1,15.1,26.1c-2.3,15.9-10.6,26.7-25.4,26.7h-6.9l-3.8,26.8h-21L511.6,473.9
			z M528.7,508.6c5.4,0,7.8-3,8.6-8.6s-0.6-8-5.1-8H530l-2.3,16.6H528.7z"/>
		<path class="st2" d="M558.1,535.4h17.7l-2.6,18.1h-17.7L558.1,535.4z M565.1,473.9h21L575,530.2h-14.7L565.1,473.9z"/>
	</g>
	<g>
		<path class="st2" d="M22,382.4h21l-8.2,58.2h19.3l-3,21.4H10.8L22,382.4z"/>
		<path class="st2" d="M92.5,380.3c18.2,0,24.9,17.1,21.4,41.9s-15,41.9-33.3,41.9c-18.2,0-24.9-17.1-21.4-41.9
			C62.8,397.4,74.3,380.3,92.5,380.3z M83.6,443.3c3.2,0,6-2.8,8.6-21.2c2.5-18,0.7-21.2-2.6-21.2c-3.4,0-6.2,3.2-8.6,21.2
			C78.3,440.6,80.4,443.3,83.6,443.3z"/>
		<path class="st2" d="M168,432.5c-1.5,10.9-5.6,18.9-10.9,24c-5.2,5.1-11.7,7.5-18.3,7.5c-18.5,0-24.7-17-21.2-42.2
			c3-24.8,15.2-41.6,33.1-41.6c13.3,0,23.4,8.2,20.2,31.5h-19.2c1-9-1-10.8-3.5-10.8c-5.4,0-7.2,8.4-8.9,21.2
			c-1.8,12.1-2.6,21.2,2.7,21.2c2.7,0,4.9-2.4,6.4-10.8L168,432.5L168,432.5z"/>
		<path class="st2" d="M180.6,382.4h20.5l-4.8,34.2h0.1l15.5-34.2H234l-19.4,37.5l10.2,42.1h-22.7l-7.1-35.7h-0.1l-5.1,35.7h-20.5
			L180.6,382.4z"/>
		<path class="st2" d="M287.5,432.6h-8.9l-4.2,29.3h-21l11.2-79.6h21l-3.7,26.9h8.9l3.7-26.9h21L304.3,462h-21L287.5,432.6z"/>
		<path class="st2" d="M323,382.4h21L332.7,462h-21L323,382.4z"/>
		<path class="st2" d="M400.4,405.1h-0.1L384.8,462h-19.2l0.6-56.9H366l-8.1,56.9h-17.7l11.2-79.6h29.1l-0.9,47.4h0.1l12.5-47.4
			h29.1L410.1,462h-17.7L400.4,405.1z"/>
		<path class="st2" d="M497,435.3c-2.7,19.2-13.2,28.8-29.2,28.8s-23.8-9.6-21.1-28.8l7.5-52.9h21l-7.3,51.6
			c-0.9,6.3,0.7,8.7,2.9,8.7c2.2,0,4.5-2.4,5.4-8.7l7.3-51.6h21L497,435.3z"/>
		<path class="st2" d="M511.6,382.4h30.8c12.7,0,17.2,11.1,15.1,26.1c-2.3,15.9-10.6,26.7-25.4,26.7h-6.9l-3.8,26.8h-21L511.6,382.4
			z M528.7,417.1c5.4,0,7.8-3,8.6-8.6s-0.6-8-5.1-8H530l-2.3,16.6H528.7z"/>
		<path class="st2" d="M558.1,443.9h17.7l-2.6,18.1h-17.7L558.1,443.9z M565.1,382.4h21L575,438.7h-14.7L565.1,382.4z"/>
	</g>
	<g>
		<path class="st2" d="M22,291.2h21l-8.2,58.2h19.3l-3,21.4H10.8L22,291.2z"/>
		<path class="st2" d="M92.5,289.1c18.2,0,24.9,17.1,21.4,41.9s-15,41.9-33.3,41.9c-18.2,0-24.9-17.1-21.4-41.9
			C62.8,306.2,74.3,289.1,92.5,289.1z M83.6,352.2c3.2,0,6-2.8,8.6-21.2c2.5-18,0.7-21.2-2.6-21.2c-3.4,0-6.2,3.2-8.6,21.2
			C78.3,349.4,80.4,352.2,83.6,352.2z"/>
		<path class="st2" d="M168,341.4c-1.5,10.9-5.6,18.9-10.9,24c-5.2,5.1-11.7,7.5-18.3,7.5c-18.5,0-24.7-17-21.2-42.2
			c3-24.8,15.2-41.6,33.1-41.6c13.3,0,23.4,8.2,20.2,31.5h-19.2c1-9-1-10.8-3.5-10.8c-5.4,0-7.2,8.4-8.9,21.2
			c-1.8,12.1-2.6,21.2,2.7,21.2c2.7,0,4.9-2.4,6.4-10.8L168,341.4L168,341.4z"/>
		<path class="st2" d="M180.6,291.2h20.5l-4.8,34.2h0.1l15.5-34.2H234l-19.4,37.5l10.2,42.1h-22.7l-7.1-35.7h-0.1l-5.1,35.7h-20.5
			L180.6,291.2z"/>
		<path class="st2" d="M287.5,341.5h-8.9l-4.2,29.3h-21l11.2-79.6h21l-3.7,26.9h8.9l3.7-26.9h21l-11.2,79.6h-21L287.5,341.5z"/>
		<path class="st2" d="M323,291.2h21l-11.2,79.6h-21L323,291.2z"/>
		<path class="st2" d="M400.4,313.9h-0.1l-15.5,56.9h-19.2l0.6-56.9H366l-8.1,56.9h-17.7l11.2-79.6h29.1l-0.9,47.4h0.1l12.5-47.4
			h29.1l-11.2,79.6h-17.7L400.4,313.9z"/>
		<path class="st2" d="M497,344.1c-2.7,19.2-13.2,28.8-29.2,28.8s-23.8-9.6-21.1-28.8l7.5-52.9h21l-7.3,51.6
			c-0.9,6.3,0.7,8.7,2.9,8.7c2.2,0,4.5-2.4,5.4-8.7l7.3-51.6h21L497,344.1z"/>
		<path class="st2" d="M511.6,291.2h30.8c12.7,0,17.2,11.1,15.1,26.1c-2.3,15.9-10.6,26.7-25.4,26.7h-6.9l-3.8,26.8h-21L511.6,291.2
			z M528.7,325.9c5.4,0,7.8-3,8.6-8.6s-0.6-8-5.1-8H530l-2.3,16.6H528.7z"/>
		<path class="st2" d="M558.1,352.7h17.7l-2.6,18.1h-17.7L558.1,352.7z M565.1,291.2h21L575,347.5h-14.7L565.1,291.2z"/>
	</g>
	<g>
		<path class="st2" d="M22,199.7h21l-8.2,58.2h19.3l-3,21.4H10.8L22,199.7z"/>
		<path class="st2" d="M92.5,197.6c18.2,0,24.9,17.1,21.4,41.9s-15,41.9-33.3,41.9c-18.2,0-24.9-17.1-21.4-41.9
			C62.8,214.7,74.3,197.6,92.5,197.6z M83.6,260.7c3.2,0,6-2.8,8.6-21.2c2.5-18,0.7-21.2-2.6-21.2c-3.4,0-6.2,3.2-8.6,21.2
			C78.3,257.9,80.4,260.7,83.6,260.7z"/>
		<path class="st2" d="M168,249.9c-1.5,10.9-5.6,18.9-10.9,24c-5.2,5.1-11.7,7.5-18.3,7.5c-18.5,0-24.7-17-21.2-42.2
			c3-24.8,15.2-41.6,33.1-41.6c13.3,0,23.4,8.2,20.2,31.5h-19.2c1-9-1-10.8-3.5-10.8c-5.4,0-7.2,8.4-8.9,21.2
			c-1.8,12.1-2.6,21.2,2.7,21.2c2.7,0,4.9-2.4,6.4-10.8L168,249.9L168,249.9z"/>
		<path class="st2" d="M180.6,199.7h20.5l-4.8,34.2h0.1l15.5-34.2H234l-19.4,37.5l10.2,42.1h-22.7l-7.1-35.7h-0.1l-5.1,35.7h-20.5
			L180.6,199.7z"/>
		<path class="st2" d="M287.5,250h-8.9l-4.2,29.3h-21l11.2-79.6h21l-3.7,26.9h8.9l3.7-26.9h21l-11.2,79.6h-21L287.5,250z"/>
		<path class="st2" d="M323,199.7h21l-11.2,79.6h-21L323,199.7z"/>
		<path class="st2" d="M400.4,222.4h-0.1l-15.5,56.9h-19.2l0.6-56.9H366l-8.1,56.9h-17.7l11.2-79.6h29.1l-0.9,47.4h0.1l12.5-47.4
			h29.1l-11.2,79.6h-17.7L400.4,222.4z"/>
		<path class="st2" d="M497,252.6c-2.7,19.2-13.2,28.8-29.2,28.8s-23.8-9.6-21.1-28.8l7.5-52.9h21l-7.3,51.6
			c-0.9,6.3,0.7,8.7,2.9,8.7c2.2,0,4.5-2.4,5.4-8.7l7.3-51.6h21L497,252.6z"/>
		<path class="st2" d="M511.6,199.7h30.8c12.7,0,17.2,11.1,15.1,26.1c-2.3,15.9-10.6,26.7-25.4,26.7h-6.9l-3.8,26.8h-21L511.6,199.7
			z M528.7,234.4c5.4,0,7.8-3,8.6-8.6s-0.6-8-5.1-8H530l-2.3,16.6H528.7z"/>
		<path class="st2" d="M558.1,261.2h17.7l-2.6,18.1h-17.7L558.1,261.2z M565.1,199.7h21L575,256h-14.7L565.1,199.7z"/>
	</g>
	<g>
		<path class="st2" d="M22,108.6h21l-8.2,58.2h19.3l-3,21.4H10.8L22,108.6z"/>
		<path class="st2" d="M92.5,106.5c18.2,0,24.9,17.1,21.4,41.9s-15,41.9-33.3,41.9c-18.2,0-24.9-17.1-21.4-41.9
			C62.8,123.6,74.3,106.5,92.5,106.5z M83.6,169.5c3.2,0,6-2.8,8.6-21.2c2.5-18,0.7-21.2-2.6-21.2c-3.4,0-6.2,3.2-8.6,21.2
			C78.3,166.8,80.4,169.5,83.6,169.5z"/>
		<path class="st2" d="M168,158.7c-1.5,10.9-5.6,18.9-10.9,24c-5.2,5.1-11.7,7.5-18.3,7.5c-18.5,0-24.7-17-21.2-42.2
			c3-24.8,15.2-41.6,33.1-41.6c13.3,0,23.4,8.2,20.2,31.5h-19.2c1-9-1-10.8-3.5-10.8c-5.4,0-7.2,8.4-8.9,21.2
			c-1.8,12.1-2.6,21.2,2.7,21.2c2.7,0,4.9-2.4,6.4-10.8L168,158.7L168,158.7z"/>
		<path class="st2" d="M180.6,108.6h20.5l-4.8,34.2h0.1l15.5-34.2H234l-19.4,37.5l10.2,42.1h-22.7l-7.1-35.7h-0.1l-5.1,35.7h-20.5
			L180.6,108.6z"/>
		<path class="st2" d="M287.5,158.8h-8.9l-4.2,29.3h-21l11.2-79.6h21l-3.7,26.9h8.9l3.7-26.9h21l-11.2,79.6h-21L287.5,158.8z"/>
		<path class="st2" d="M323,108.6h21l-11.2,79.6h-21L323,108.6z"/>
		<path class="st2" d="M400.4,131.3h-0.1l-15.5,56.9h-19.2l0.6-56.9H366l-8.1,56.9h-17.7l11.2-79.6h29.1l-0.9,47.4h0.1l12.5-47.4
			h29.1l-11.2,79.6h-17.7L400.4,131.3z"/>
		<path class="st2" d="M497,161.5c-2.7,19.2-13.2,28.8-29.2,28.8s-23.8-9.6-21.1-28.8l7.5-52.9h21l-7.3,51.6
			c-0.9,6.3,0.7,8.7,2.9,8.7c2.2,0,4.5-2.4,5.4-8.7l7.3-51.6h21L497,161.5z"/>
		<path class="st2" d="M511.6,108.6h30.8c12.7,0,17.2,11.1,15.1,26.1c-2.3,15.9-10.6,26.7-25.4,26.7h-6.9l-3.8,26.8h-21L511.6,108.6
			z M528.7,143.3c5.4,0,7.8-3,8.6-8.6s-0.6-8-5.1-8H530l-2.3,16.6H528.7z"/>
		<path class="st2" d="M558.1,170.1h17.7l-2.6,18.1h-17.7L558.1,170.1z M565.1,108.6h21L575,164.9h-14.7L565.1,108.6z"/>
	</g>
	<g>
		<path class="st2" d="M22,17.1h21l-8.2,58.2h19.3l-3,21.4H10.8L22,17.1z"/>
		<path class="st2" d="M92.5,15c18.2,0,24.9,17.1,21.4,41.9s-15,41.9-33.3,41.9c-18.2,0-24.9-17.1-21.4-41.9
			C62.8,32.1,74.3,15,92.5,15z M83.6,78c3.2,0,6-2.8,8.6-21.2c2.5-18,0.7-21.2-2.6-21.2c-3.4,0-6.2,3.2-8.6,21.2
			C78.3,75.3,80.4,78,83.6,78z"/>
		<path class="st2" d="M168,67.2c-1.5,10.9-5.6,18.9-10.9,24c-5.2,5.1-11.7,7.5-18.3,7.5c-18.5,0-24.7-17-21.2-42.2
			c3-24.8,15.2-41.6,33.1-41.6c13.3,0,23.4,8.2,20.2,31.5h-19.2c1-9-1-10.8-3.5-10.8c-5.4,0-7.2,8.4-8.9,21.2
			C137.5,69,136.7,78,142,78c2.7,0,4.9-2.4,6.4-10.8H168z"/>
		<path class="st2" d="M180.6,17.1h20.5l-4.8,34.2h0.1L212,17.1h22.1l-19.4,37.5l10.2,42.1h-22.7L195.1,61H195l-5.1,35.7h-20.5
			L180.6,17.1z"/>
		<path class="st2" d="M287.5,67.3h-8.9l-4.2,29.3h-21L264.6,17h21l-3.7,27h8.9l3.7-26.9h21l-11.2,79.6h-21L287.5,67.3z"/>
		<path class="st2" d="M323,17.1h21l-11.2,79.6h-21L323,17.1z"/>
		<path class="st2" d="M400.4,39.8h-0.1l-15.5,56.9h-19.2l0.6-56.9H366l-8.1,56.9h-17.7l11.2-79.6h29.1l-0.9,47.4h0.1l12.5-47.4
			h29.1l-11.2,79.6h-17.7L400.4,39.8z"/>
		<path class="st2" d="M497,70c-2.7,19.2-13.2,28.8-29.2,28.8S444,89.2,446.7,70l7.5-52.9h21l-7.3,51.6c-0.9,6.3,0.7,8.7,2.9,8.7
			c2.2,0,4.5-2.4,5.4-8.7l7.3-51.6h21L497,70z"/>
		<path class="st2" d="M511.6,17.1h30.8c12.7,0,17.2,11.1,15.1,26.1c-2.3,15.9-10.6,26.7-25.4,26.7h-6.9l-3.8,26.8h-21L511.6,17.1z
			 M528.7,51.8c5.4,0,7.8-3,8.6-8.6s-0.6-8-5.1-8H530l-2.3,16.6C527.7,51.8,528.7,51.8,528.7,51.8z"/>
		<path class="st2" d="M558.1,78.6h17.7l-2.6,18.1h-17.7L558.1,78.6z M565.1,17.1h21L575,73.4h-14.7L565.1,17.1z"/>
	</g>
</g>
<g>
	<path class="st3" d="M272.1,0.1c0.2,0.2,0.3,0.5,0.5,0.6c3.4,3.2,7.4,6.1,10,9.9c2.2,3.2,3.9,6.3,8.5,6.6c-5.9,3.7-9.2,0.8-11.7-4
		c-2.1,2.3-1.8,3.9-1.3,6.4c1.3,7.1,7.2,10.4,11,15.4c1.4,1.9,2.8,3.9,4.1,5.8l0.1-0.1c-1.9-0.5-4.1-0.6-5.8-1.5
		c-1.8-1-3.3-2.7-4.8-4c-0.1-0.8,0.1-2-0.4-2.6c-2.2-2.6-4.7-5-7.1-7.5l0.1,0.1c-2.7-2.1-6-3.4-5.9-8c0-2.7-4-3.5-7-1.9
		c0.8,1.4,1.5,2.8,2.3,4.3c-0.3,0.2-0.5,0.4-0.8,0.7c-0.8-0.4-1.6-0.7-2.4-1.1c-2-0.9-4.4-3-6-2.5c-3.8,1.2-5.4-1.4-7.8-3
		c-0.9-0.6-2.2-0.6-3.3-0.9c0.1,1.2,0.1,2.4,0.5,3.6c1.9,6.7,7.5,10.3,12.5,14.4c1.2,0.9,1.6,2.8,2.4,4.3c2.1-2.1,4.2-0.2,6.5,0.6
		c5.3,1.9,8.8,5.1,9.2,10.8c-0.3,0.3-0.7,0.5-1,0.8c-1.7-2-3.3-4.1-5-6.1c-1.8-2.3-3.7-4.2-7-2.5c-1,0.5-2.3,0.5-3.5,0.7
		c-2.3-2.1-4.6-4.2-7-6.2c-0.5-0.5-1.2-0.9-1.5-1.4c-0.7-1.3-0.9-2.9-1.8-3.9c-1.3-1.5-4.3-2.7-4.3-4c-0.1-7.6-6.7-10.1-10.8-14.4
		c-3.5-3.7-8-6.4-12-9.5c2.1,0,4.3,0,6.4,0c1.5,1.3,2.9,2.8,4.5,3.7c1.3,0.7,3,0.8,4.6,1.1c-0.1-1.6-0.2-3.2-0.3-4.8
		C248.5,0.1,260.3,0.1,272.1,0.1z"/>
	<path class="st3" d="M412.5,0.1c0.1,0.4,0.2,0.8,0.5,1.1c3.1,3,4.3,6.4,4.4,10.9c0,2.5,2.9,4.9,4.4,7.5c3,5.4,5.9,10.8,8.9,16.2
		c-0.4,0.2-0.8,0.5-1.2,0.7c-1.3-1.7-2.6-3.4-3.8-5.1c-4.7,3.2-6,2.9-8.7-1.9c-0.9-1.6-2-3.1-3.2-4.9c-0.7,1-1.1,1.5-1.7,2.3
		c-7-5.8-13.7-11.7-19-19.2c-2.3-3.3-6.7-5.1-10.1-7.6C392.7,0.1,402.6,0.1,412.5,0.1z M397.4,4.7c0.4,6.5,1.1,7.3,4.7,5.6
		C400.6,8.5,399.1,6.7,397.4,4.7z"/>
	<path class="st3" d="M438.2,0.1c0.7,1.8,1,4,2.2,5.3c4.2,4.6,7,9.7,8.6,15.8c0.8,3.2,3,6,4.6,9c0.2,0.4,0.1,0.9,0.2,1.7
		c-8.2-10.8-16.3-21.3-24.3-31.7C432.3,0.1,435.3,0.1,438.2,0.1z"/>
	<path class="st3" d="M314.4,1.2c-0.2,2.1-0.4,4.2-0.6,6.4c-1.5-1.1-3-2.1-4.4-3.3c-1.6-1.3-3-2.7-4.5-4.1c3.2,0,6.4,0,9.6,0
		C314.5,0.5,314.5,0.8,314.4,1.2z"/>
	<path class="st3" d="M424.6,0.1c2.2,4.7,4.3,9.4,6.5,14.1c-0.4,0.2-0.7,0.5-1.1,0.7c-2.9-4.9-5.8-9.8-8.6-14.7
		C422.4,0.1,423.5,0.1,424.6,0.1z"/>
	<path class="st3" d="M513,10.6c-2.7-3.5-5.5-7-8.2-10.5c1.1,0,2.1,0,3.2,0c1.1,3.1,2.3,6,6.4,5.9C513.9,7.6,513.5,9.1,513,10.6z"/>
	<path class="st3" d="M416.8,49.3c-2.2-3.9-4.4-7.7-6.6-11.6c0.6-0.4,1.2-0.7,1.8-1.1c3.3,5.1,6.6,10.1,9.9,15.2
		c-0.2,0.2-0.3,0.4-0.5,0.7c-1.6-1.2-3.2-2.4-4.8-3.6C416.6,49.1,416.7,49.2,416.8,49.3z"/>
	<path class="st3" d="M424.1,488.8c2-0.9,4-2,6.1-2.5c0.4-0.1,1.4,2.1,2.5,3.8c-2.4,0.2-3.9,0.4-5.5,0.5
		C426.2,490,425.1,489.4,424.1,488.8z"/>
	<path class="st3" d="M87.8,340.5c0.1-5.3-0.6-10.8,2.6-15.6c-0.6,5.6-1.3,11.1-1.9,16.7C88.3,341.2,88.1,340.8,87.8,340.5z"/>
	<path class="st3" d="M242.9,48.2c2,0.1,4,0.1,6,0.2c0,0.7,0,1.3,0,2c-1.6,0.2-3.3,0.6-4.9,0.4c-0.4,0-0.7-1.8-1-2.8
		C243,48,242.9,48.2,242.9,48.2z"/>
	<path class="st3" d="M420.7,517.9c0.2,1.4,0.5,2.7,0.7,4.1c-1.4,0-2.8,0-4.1,0c0-0.4,0-0.8,0-1.1c0.9,0,1.9,0,3.2,0
		c-0.8-1.4-1.4-2.5-2.4-4.4C419.6,517.2,420.2,517.5,420.7,517.9C420.8,517.8,420.7,517.9,420.7,517.9z"/>
	<path class="st3" d="M407.2,562.8c-0.6,0.4-1.3,0.8-1.9,1.2c0.8-2.5,1.6-5,2.4-7.6c0.5,0.2,1.1,0.4,1.6,0.5c-0.8,2-1.5,4-2.3,6
		C407,563,407.2,562.8,407.2,562.8z"/>
	<path class="st3" d="M307.4,230.3c-0.5,0.5-1.1,0.9-1.6,1.5c-0.1,0.1,0.6,1,0.9,1c2.6,0,5.1-0.2,7.7-0.2c4,0,8.1,0,12.2,0
		c0.7-1.3,1.4-2.5,2.1-3.8c3,2,3.8-1,4-2.6c0.6-5,0.4-10.2,1-15.2c0.3-2.1,1.9-4,2.9-6.1c0.7,0.2,1.3,0.3,2,0.5
		c-0.4,5.4-0.3,10.9-1.5,16.1c-1.4,5.9-4.1,11.5-6.3,17.2c-1.1,2.9,0.3,4.6,3.9,4.4c-0.8,1.2-1.2,2.4-2,3c-5.5,3.6-7.6,9-9,15.1
		c-0.3,1.6-2.4,2.7-3.6,4.2c-2.5,3.1-5,6.4-7.9,10.1c-0.7-6.6-4.7-9.3-10-11.2c-3.4-1.3-6.4-3.7-9.8-5.1c-4.6-1.9-9.5-3.3-14.6-4.3
		c7.1,3.8,14.3,7.5,21.4,11.3c-0.2,0.6-0.5,1.2-0.7,1.8c-1.3-0.3-2.6-0.7-3.9-0.8c-3.1-0.3-7.2-1.8-9-0.4c-2.9,2.3-5,4.6-9.4,3
		c-0.1-0.9-0.2-2.4-0.3-4.5c-4.9-0.3-10-1-15.1-0.7c-14.8,0.9-29.1-1.5-43.3-5.5c-6.6-1.9-12.8,0.3-18.9,2.9c-4,1.8-8,0.8-12,0.2
		c2.3-0.9,4.6-1.8,6.9-2.7c-0.3-0.2-0.7-0.5-1-0.7c0.3-1.9,0.5-3.8,0.8-5.6c0.3,0.3,0.7,0.7,1,1c3.8-2,7.5-4,11.3-5.9l-0.1-0.1
		c0.7,0.3,1.7,1.1,2,0.9c2.8-2.1,5.5-4.3,8.2-6.5v0.2c2.2,0.1,4.4,0.2,6.6,0.4c4.7,0.6,9.3,1.5,14.1,1.9c3.3,0.2,6.6-0.3,9.9-0.4
		c6.4-0.2,12.7-0.2,19.1-0.6c2.6-0.2,5.2-1.1,7.7-2c1.2-0.4,2.1-1.6,3-3c-7.8,1.5-15.7,4.2-21.9-3.6c1,0.4,2.7,0.4,3,1.1
		c1.4,2.8,3.5,2.6,5.7,1.7c4.9-1.9,10.8-0.3,15-4.7c0.3-0.3,1.2-0.3,1.5-0.1c4.2,2.9,7.6,0,11.1-1.4c3.9-1.5,7.7-2.4,11,1.9
		C302.8,231.7,303.6,228.2,307.4,230.3L307.4,230.3z M243.2,261c1.5-1.8,2.7-3.2,3.9-4.6c-0.6-0.5-1.7-1.6-1.8-1.5
		c-1.5,1.1-2.8,2.4-4.2,3.7C241.5,259.2,242,259.8,243.2,261z"/>
	<path class="st3" d="M266.5,411.1c-0.5-0.5-0.9-1.5-1.5-1.5c-3.3-0.4-4.2-2-3.2-5.3c0.5-2,3-4.9-1.8-5.8
		c3.7-6.8,10.3-10.2,16.2-14.4c2.1-1.5,3.5-4,5.1-6.1c0.8-1,1.2-2.5,2.1-3.3c4.4-4,6.6-9.7,11.6-13.3c2.1-1.5,2.8-4.9,4.1-7.4
		c-0.3-0.3-0.7-0.6-1-0.8c-0.9,0.1-1.8,0.2-2.7,0.3c-0.2-0.4-0.3-0.7-0.5-1.1c2.8-1.4,5.4-3.6,8.3-4.1c2-0.3,4.5,1.4,6.5,2.6
		c0.7,0.5,1,2.3,0.8,3.4c-0.2,1-1.5,2.6-2,2.5c-4-1-5.4,2.1-6.6,4.5c-2.3,4.6-3.9,9.6-5.9,14.3c-0.9,2.1-2.1,4.1-3.3,6.1
		c-0.9,1.5-3.8,2-2.4,4.7c0,0.1-0.9,0.8-1.5,1.1c-4.6,3-8.6,6.6-11.2,11.7c-0.8,1.6-2.6,2.7-3.9,4.2c-0.5,0.6-0.7,1.4-1.2,2.6
		c-0.9,0.1-2.4,0.4-3.5,0.6C268.2,408.2,267.3,409.6,266.5,411.1L266.5,411.1z"/>
	<path class="st3" d="M267.5,299.5c1,1.9-0.9,5.3-3.1,5.4c-2.6,0.2-5.4-0.3-7.8,0.5c-5,1.5-7.1-2.6-10.6-4.8
		c2.2-0.9,4.1-1.7,6.3-2.6c0.5,0.9,1.2,2,2.2,3.7c3.8-4.5,8.3-5,13.1-2.1C267.8,299.5,267.5,299.5,267.5,299.5z"/>
	<path class="st3" d="M144.5,106.9c-1.1,0.3-2.3,0.5-4.1,1c0-1.8,0-3.4,0-5.1c2.8-0.9,2.8-0.9,1.9-6.5c3.1-0.6,7.5,2.9,7,5.9
		c-0.1,0.8-1.2,1.5-1.9,2.2C146.5,105.3,145.5,106.1,144.5,106.9z"/>
	<path class="st3" d="M215.6,242.7v-0.2c-1,0.2-2.1,0.2-3,0.7c-2.5,1.5-4.8,3.2-7.2,4.9l0.1,0.1c-0.2-1.2-0.3-2.4-0.5-3.6
		c-0.1,0-0.3,0-0.4,0c0-2.2,0-4.4,0-7.1C208.7,238.8,213.5,237.6,215.6,242.7z"/>
	<path class="st3" d="M267.5,299.5h0.2c-0.8-1-1.6-2.1-2.7-3.5c5.3-1.8,10.3-2.5,15.4-2.1c0.2,0.5,0.3,1.1,0.5,1.6
		c-1.4,0.7-2.9,1.5-4.3,2.2c-0.8,0.4-2,0.4-2.5,1.1c-1.6,2.2-3,1.6-4.6,0.1C269.3,298.5,268.2,299.2,267.5,299.5z"/>
	<path class="st3" d="M77,289.9c1.9,4.1,3.8,8.1,5.7,12.2c2.4,5.3,4.8,10.6,7.2,15.9c0.5,1.1,0.6,2.3,0.7,3.5
		c-6.7-8.2-9.3-18.3-13.1-27.8C76.9,292.6,77.2,291.2,77,289.9C77.1,289.8,77,289.9,77,289.9z"/>
	<path class="st3" d="M418.9,84.9c-4.3-3.3-8.6-6.7-13.1-10.1C410.4,72.6,416.2,76.8,418.9,84.9z"/>
	<path class="st3" d="M266.4,411c-1.1,1.4-2.2,2.8-3.2,4.3s-1.9,3.1-2.4,4c-5-1.2-7.5,3.8-12.2,3.8c2.8-2.1,5-3.8,7.2-5.5
		c1.9-1.5,3.7-3.3,5.7-4.7C263,412.1,264.9,411.7,266.4,411C266.5,411.1,266.4,411,266.4,411z"/>
	<path class="st3" d="M200.7,517.9c-1.1-0.1-2.2-0.1-3-0.2c-1.7-3.6-3.7-7.7-5.7-12c0.4-0.3,1.1-0.9,1.9-1.6c1.8,0.5,3.5,1,5.1,1.5
		c-1.2,1.3-3.2,2.5-3.2,3.7c0,1.6,1.4,3.3,2.4,4.9C198.8,515.4,199.8,516.6,200.7,517.9z"/>
	<path class="st3" d="M380.6,562.4c-1.6,0.9-3.5,1.5-4.7,2.7c-1,1.1-1.2,3-2.1,5.8c-0.6-1.8-1.7-3.6-1.3-4c2.6-2.6,2.7-5.5,1.9-8.7
		c-0.1-0.5,0.4-1.1,0.6-1.6c1.2,1.5,2.3,3,3.4,4.4C379.1,561.5,379.8,562,380.6,562.4z"/>
	<path class="st3" d="M392.2,147c1.4,0.8,2.8,1.7,4.2,2.6c0.3,0.2,0.4,0.6,0.8,1.2c-1,1.2-2,2.5-2.9,3.8
		C389.6,152.7,389,150.8,392.2,147z"/>
	<path class="st3" d="M425.3,234.9c-5,0-9.2,0-14.1,0C415.9,231.1,422.9,230.8,425.3,234.9z"/>
	<path class="st3" d="M229.5,233.5c-2.9,2.6-8.5,2.6-10.3,0.6c-0.4-0.5-0.7-1.6-0.4-2.1s1.4-0.8,2-0.7
		C223.5,231.9,226.1,232.6,229.5,233.5z"/>
	<path class="st3" d="M223.1,239.1c-3.9-0.7-7.8-1.3-11.8-2c0.1-0.7,0.2-1.3,0.4-2c3.9,0.7,7.8,1.4,11.7,2.1
		C223.3,237.9,223.2,238.5,223.1,239.1z"/>
	<path class="st3" d="M162.9,118.5c-3.4,0-6.8,0-10.3,0C153.3,115.2,158.3,115,162.9,118.5z"/>
	<path class="st3" d="M196.2,387.3c0.3-0.5,0.6-1,1-1.5c-1.8-0.8-3.4-1.5-4.9-2.2c0.2-0.4,0.4-0.9,0.6-1.3c2.6,1,5.2,2,9,3.4
		c-2.4,1.2-3.8,2-5.2,2.7C196.5,388.1,196.4,387.7,196.2,387.3z"/>
	<path class="st3" d="M135.9,260.4c0.4,3.5,0.7,6.7,1.1,10.4c-1.4-1.2-2.7-2.4-4.3-3.8C133.7,264.7,134.8,262.5,135.9,260.4z"/>
	<path class="st3" d="M375.6,149.8c0.4-1.9,0.8-3.8,1.4-6.3C380.2,147,380.2,147.5,375.6,149.8z"/>
	<path class="st3" d="M459.1,424.3c-0.6,5.6-1.4,6.4-5.9,6.5C455,428.8,457,426.6,459.1,424.3z"/>
	<path class="st3" d="M281.9,230.2c-3.9,0.3-7.2-0.1-7.7-4.9C276.8,227,279.4,228.6,281.9,230.2z"/>
	<path class="st3" d="M242.9,304.2c-0.8,0.3-2,1.2-2.4,0.9c-1.4-0.8-2.5-2-3.7-3.1c0.6-0.5,1.5-1.6,1.9-1.5c1.3,0.4,2.4,1.3,3.6,2.1
		C242.5,303.1,242.7,303.7,242.9,304.2z"/>
	<path class="st3" d="M186.7,384.7c-2.3-7.1-2.3-7.1,0-8.8C186.7,378.8,186.7,381.8,186.7,384.7z"/>
	<path class="st3" d="M238.7,239.8c2.1-3.4,5.5-3.7,9.8-1.2C245.3,239,242.2,239.4,238.7,239.8z"/>
	<path class="st3" d="M241.9,67.4c-3.3-0.3-3.8-3.4-5.5-5.2c0.4-0.4,0.8-0.8,1.2-1.2c1.8,1.8,3.6,3.6,5.4,5.4
		C242.6,66.7,242.2,67,241.9,67.4z"/>
	<path class="st3" d="M432.5,516.1c-2.1,0.3-4.2,0.6-7.2,1c2.2-4.9,5-1.6,7.1-2.2C432.4,515.3,432.4,515.7,432.5,516.1z"/>
	<path class="st3" d="M293.1,40.8c1.3,1,2.6,1.9,3.8,2.9c0.6,0.5,1.1,1.1,1.6,1.8C294.7,46.5,292.7,44.6,293.1,40.8
		C293.2,40.7,293.1,40.8,293.1,40.8z"/>
	<path class="st3" d="M181.6,415.3c2,3.2,3.3,5.4,4.8,7.8C182.8,422.4,182.8,422.4,181.6,415.3z"/>
	<path class="st3" d="M170.9,247.5c3.1-0.3,5.2-0.5,7.3-0.7c0,0.3,0.1,0.7,0.1,1C176.1,247.9,174.3,251.1,170.9,247.5z"/>
	<path class="st3" d="M188.8,370.8c1.6,1.1,3.2,2.3,4.9,3.4c-0.3,0.4-0.6,0.9-0.8,1.3c-1.6-1.1-3.3-2.3-4.9-3.4
		C188.2,371.7,188.5,371.3,188.8,370.8z"/>
	<path class="st3" d="M275.2,25.3l-0.1-0.1c-2.1,3.1-3.5,3-7.3-0.9C270.4,24.6,272.8,24.9,275.2,25.3z"/>
	<path class="st3" d="M399.8,527.8c-1-2.6-1.7-4.4-2.4-6.3C400.7,522.2,401.3,523.5,399.8,527.8z"/>
	<path class="st3" d="M307.4,230.3c-3.5-4.5-3.5-4.5-2.2-7.6C306.8,225.1,309.1,227.1,307.4,230.3L307.4,230.3z"/>
	<path class="st3" d="M311.3,708.3c8.7,0.1,12.8,3.1,14,13.6c-3.1,0.8-4.4-0.4-6-3.3C317.2,714.8,313.9,711.6,311.3,708.3z"/>
	<path class="st3" d="M268.2,709.4c1.7,1.4,3.3,2.7,4.9,4.1c-2.8,6.1-7.2-0.7-10.8,1.1C264.4,712.7,266.4,711,268.2,709.4z"/>
	<path class="st3" d="M450.7,62.3c-1.4,0.5-2.8,0.6-3.5,1.3c-1.9,1.9-3.5,1.2-4.7-0.5c-4.3-6.2-8.4-12.5-12.6-18.8
		c-0.2-0.3-0.2-0.7-0.5-2.1c1.8,1.7,3,2.8,4.8,4.5c-0.4-1.5-0.7-2.1-0.8-2.6c-0.2-1.2-0.2-2.4-0.4-3.6c1.5,0.3,3.4,0.2,4.3,1.1
		c1.9,1.8,3.2,4.2,4.7,6.3C445.3,52.6,450.6,56.1,450.7,62.3z"/>
	<path class="st3" d="M441.2,71.1c-2.7-3.6-5.3-7.2-7.9-10.7c0.1-0.3,0.2-0.5,0.4-0.8c1.8,1,3.9,1.7,5.5,3.1
		c1.7,1.5,2.9,3.6,4.5,5.7C443.2,69,442.3,69.9,441.2,71.1z"/>
	<path class="st3" d="M417.3,33.2c3.8,5.3,7.6,10.7,11.5,16c-0.4,0.3-0.7,0.6-1.1,0.8c-3.9-5.3-7.9-10.6-11.8-15.8
		C416.4,33.9,416.9,33.6,417.3,33.2z"/>
	<path class="st3" d="M441.5,28c1.9,2.6,3.7,5.1,5.6,7.7c-0.5,0.4-1.1,0.8-1.6,1.2c-1.8-2.6-3.7-5.1-5.5-7.7
		C440.6,28.7,441.1,28.3,441.5,28z"/>
	<path class="st3" d="M406.8,24.6c2.3,2.5,4.6,5,6.8,7.5c-0.4,0.4-0.9,0.8-1.3,1.2c-2.5-2.3-5.1-4.5-7.6-6.8
		C405.5,26,406.1,25.3,406.8,24.6z"/>
	<path class="st3" d="M476.4,49.8c-1.3-3.1-2.6-6.2-3.9-9.3c0.5-0.2,1.1-0.4,1.6-0.6c1.1,3.2,2.2,6.4,3.4,9.6
		C477.1,49.6,476.8,49.7,476.4,49.8z"/>
	<path class="st3" d="M532.2,766.1H530l-2.3,16.6h1c5.4,0,7.8-3,8.6-8.6S536.8,766.1,532.2,766.1z"/>
	<path class="st3" d="M89.6,766.6c-3.4,0-6.2,3.2-8.6,21.2c-2.6,18.4-0.6,21.2,2.6,21.2s6-2.8,8.6-21.2
		C94.7,769.8,93,766.6,89.6,766.6z"/>
</g>
<g>
	<path class="st3" d="M595.3,0H0v841.9h595.3V0z M556.4,0.3c8.2,7.9,16.5,15.8,24.8,23.8c-0.5-0.1-1.1,0-1.5-0.3
		c-6.5-4.8-12.8-9.7-19.3-14.4c-1.9-1.4-4.1-2.3-6.2-3.4c2.7,2.4,5.3,4.8,8,7.2c-0.3,0.3-0.5,0.6-0.8,0.8c-3.8-2.2-7.6-4.6-9.2-9.2
		c-1,0-2,0-2.8,0c2.4,3.4,5,6.8,7.4,10.3c1.5,2.1,2.4,4.7,4.1,6.6c1.6,1.7,3.9,2.7,5.8,4.1c0.8,0.6,1.3,1.6,1.9,2.3
		c-0.3,0.2-0.6,0.5-0.8,0.7c-3.1-2.2-6.1-4.4-9.4-6.7c-0.1,2.5-0.5,4.5-3.3,2.4c-1.6-1.1-3-2.4-5.5-4.3c0.6,1.9,0.8,2.7,1.1,3.7
		c-3.9,2-6.3-0.4-8.8-2.9c-4.9-4.8-10.1-9.4-15.4-14.3c-0.2,8.2,6,11.9,9.8,17.5c-1.4-1.2-2.9-2.3-4.2-3.5c-5.7-5-11.4-10-17.1-14.9
		c3.7,4.1,7.3,8.2,11,12.2c-0.2,0.2-0.4,0.5-0.7,0.7c-4-2.9-8-5.8-12-8.7c-1.1-0.2-2.4,0-3.1-0.6c-3.2-2.9-6.3-6.1-9.4-9.1H556.4z
		 M586.1,748L575,804.3h-14.7l4.8-56.3H586.1z M469.3,0.3c1.4,2.3,2.8,4.6,4.4,7.3c3-0.9,3.3,1.4,4.5,4.3c1.2,3.1,4.4,5.5,6.9,7.9
		c0.8,0.8,2.2,0.8,3.3,1.2c-0.6,0.6-1.1,1.1-1.7,1.7c-6.4-5.5-12.8-11.1-19.7-17c2.3,10.8,13.4,16.3,14.3,26.9
		c-0.3,0.3-0.7,0.5-1,0.8c-2.1-1.8-4.3-3.5-6.4-5.3c-0.3,0.2-0.5,0.4-0.8,0.5c0.9,2.2,1.7,4.6,2.9,6.7c2.5,4.4,5.2,8.7,7.7,13.1
		c1.2,2,2.9,4.3-1.7,4.3c-0.4,0-1.2,1.7-1.2,2.7c0,0.9,0.7,1.8,0.9,2.2c-1.8,0-4.1-0.6-4.7,0.1c-1.1,1.5-1.3,3.7-2,6.4
		c-4-6.9-8-13.6-12-20.4c-0.4,0.2-0.9,0.5-1.3,0.7c2.1,4.5,4.2,9,6.3,13.5c-0.3,0.3-0.7,0.6-1,0.8c-0.9-0.5-2.5-1-2.5-1.6
		c-0.3-3.7-2.9-3.7-5.5-4.1c-1.4-0.2-2.7-0.9-5.2-1.8c1.2,2.3,1.9,3.9,2.8,5.4c1.9,2.9,4,5.6,5.9,8.5c0.4,0.5,0,1.5,0,2.3
		c-0.8-0.2-1.9-0.1-2.3-0.6c-1.3-1.4-2.3-3.1-4.1-5.6c-0.5,3.7-0.9,6.8-1.3,10.2c-2.1-2.4-4-4.6-6.2-7.1c-1.8,7.3-0.5,10.8,7.6,21.4
		c-16.2-8.3-27.7-21.1-39.3-31.2c0-2.8,0-4.5,0-6.2c-11.2-8.8-22.5-17.6-33.7-26.4c-2.7-2.1-5.4-4.3-8.1-6.4
		c-0.3-0.2-0.7-0.8-0.9-0.7c-4.6,2-6.4-2.6-9.5-4.1c-1-0.5-2.3-0.2-3.5-0.3c-0.8-0.6-1.5-1.6-2.3-1.6c-7-0.3-11.5-6-17.6-8.2
		c-0.2-0.1-0.4-0.2-0.5-0.3H469.3z M487.4,200.8c-3.6,2.4-7.4,2.8-11.4,2.3c1.7-1.7,3.4-3.4,5-5C483.1,199,485,199.8,487.4,200.8z
		 M363.5,16.5c-1.1,0.2-2.4,1.1-3.3,0.8c-4.3-1.4-4.5-1.9-4.2-6.3c1.6,0.1,3.3,0.3,4.9,0.4C361.8,13.1,362.6,14.8,363.5,16.5z
		 M205.9,22.5c0.4,0.1,0.6,1.9,0.2,2.6c-0.4,0.9-1.4,1.5-1.6,1.7c-3.4-1.3-6.4-2.5-9.6-3.8C198.7,19.6,202.3,21.2,205.9,22.5z
		 M143,77.2c0.2,0.3,0.4,0.5,0.6,0.8c-0.5,0.6-1.1,1.2-1.3,1.4c2.1,1.2,4.2,2.4,6.3,3.7c3.3,2.1,4.8,0.6,5.4-3.6
		c3.5,1.9,6.6,3.5,9.6,5.1c-0.1,0.4-0.1,0.8-0.2,1.2c-3.2,0-6.5,0-9.9,0c0.3,0.7,0.5,1.5,1.2,3.3c-3-1.1-5.4-2-8.3-3
		c-2.5,3.2-5.2-0.5-8.4-1c0.6-1.3,1-2.2,1.6-3.3c-0.8-0.2-1.5-0.4-2.9-0.7C139.1,79.6,141,78.4,143,77.2z M112.7,109.8
		c0.4,0.5,0.7,1,1.1,1.6c-1,3.4-4.6,2.8-7.5,3.3C108.4,113,110.5,111.4,112.7,109.8z M110.1,129.3c-2.5,0.7-3.6-0.5-4.5-5.9
		C107.1,125.4,108.6,127.3,110.1,129.3z M51.1,827.6H10.8L22,748h21l-8.2,58.2h19.3L51.1,827.6z M67.4,243.3
		c1.2,1.2,2.7,2.7,4.1,2.9c4,0.5,3.9,3,3.8,5.9c-0.2,9.4-0.4,18.8-0.2,28.2c0.1,2.8,1.8,2.3,1.6-0.7c-0.3-5.8-1.6-11.9-0.2-17.3
		c0.8-3-1.1-6.9,1.9-9c1,0.2,1.9,0.6,2.4,0.3c1.1-0.5,2.1-1.3,3.1-2c0.5,1.4,0.9,2.7,1.6,4.6c0.4-1.4,0.8-2.5,1.1-3.6
		c0.4,0,0.7,0.1,1.1,0.1c-0.4,2.8-0.8,5.6-1.3,8.6c0.6,0.5,1.6,1.2,2.3,1.8c0-2,0-4.2,0-6.3c0.6,0,1.1-0.1,1.7-0.1
		c0.2,1.4,0.5,2.7,0.7,4.2c0.6-0.7,1.2-1.4,2-2.4c3.4,2,3.7,4.9,3.3,8.3c-0.2,1.8,0,3.6,0,5.4c0.5-0.3,1-0.7,1.6-1
		c1.9,0.5,4.4,0.5,5.5,1.7c1.5,1.6,1.9,4.1,3.1,6.8c1-2.2,2.1-4.4,3.2-6.8c0.4,1.1,0.9,2.3,1.4,3.6c1.3-1,2.5-1.9,4.2-3.1
		c0.3,1.8,0.4,3,0.6,4.6c2.6-4.5,5-8.6,7.3-12.7c-3-3-0.1-7.9-2-11.8c-0.6,0.2-1.4,0.4-3.2,0.9c0.5-2.4,0.6-4.4,1.4-6.1
		c0.7-1.6,2.1-3,3.8-5.3c-2.8,0.6-4.4,1-6.1,1.3c1.9-2.8,6.8-2.5,6.4-7.1c-0.3-3-1-5.9-1.5-8.8c-0.4,0.1-0.7,0.1-1.1,0.2
		c0.6-1.4,1.3-2.8,2-4.5c-1.1-0.3-1.9-0.5-3.5-1c1.8-1.8,3.7-2.9,4.5-4.6c0.8-1.8,0.5-4.1,0.8-6.4c-1.4,0-2.4,0-4.8,0
		c1.7-2.1,2.7-3.4,3.4-4.3c0.7-3.7,1.6-7.1,2-10.5c0.2-1.4-0.5-2.9-0.8-4.4c-0.1-0.7,0-1.4,0-2.1c-0.8-0.2-2-0.4-3.2-0.6
		c0-0.2,0-0.4,0-0.7c1.2-0.3,2.3-0.6,3.5-0.8c0-0.4,0-0.7,0-1.1c-3.6-0.3-7.2-0.7-11.4-1.1c2.4-1.8,5.2-3.8,8-5.9
		c-0.3-0.4-0.7-0.8-1-1.3c-1.1-0.1-2.2-0.2-3.4-0.4c0.5-1.2,1-2.3,1.6-3.8c-8.7,2.5-12.1,9.8-16.7,15.9c-0.3-0.1-0.7-0.3-1-0.4
		c0.4-2.4,0.7-4.8,1.1-7.2c-0.2-0.1-0.3-0.2-0.5-0.3c-2,3-3.9,6-6,9.3c-0.7-0.6-1.4-1.1-2-1.5c1.3-3.2,2.5-6.3,3.8-9.7
		c-1.1,0-1.8,0-2.4,0c1.9-10,3.7-19.9,9.4-28.8c0.3,1,0.6,2.1,1,3.3c4.1-5.7,8.2-11.3,12.2-17c-0.2-0.2-0.4-0.5-0.6-0.7
		c-2.2,0.8-4.3,1.6-6.8,2.5c-0.3-3.6,5.5-6.6-0.3-9.8c0.3-0.2,0.6-0.4,0.9-0.6c1.4,0.6,2.7,1.3,5.1,2.4c-0.8-2.3-1.1-3.7-1.8-5
		c-1.3-2.5-1.3-2.4,1.5-3.2c0.3-0.1,0.6-0.5,0.8-0.8c0.3-0.4,0.4-1,0.4-1c-2.2-2.3-4.2-4.4-6.9-7.2c3.3-1.1,5.5-1.8,8.1-2.7
		c-0.6,1.1-1.2,1.7-1.3,2.4c0,0.6,0.5,1.3,0.8,1.9c0.6-0.3,1.7-0.6,1.8-1c0.5-2.8,1.9-2,3.8-1.5c1.4,0.4,2.8,0.7,4.3,1.1
		c0.6-2.2,0.9-3.4,1.3-4.7c-0.1-0.6-0.1-1.1-0.1-1.7c1.5,1.3,3,2.6,4.5,4c-0.1,0.4-0.3,0.9-0.4,1.3c-1.5,0.4-3,0.7-4.9,1.2
		c2.8,0.6,5.6,1.2,8.4,1.8c1.4,0.3,2.7,1.3,4,1.4c1.4,0.1,2.9-0.4,4.3-0.7c0.1-0.5,0.1-1,0.2-1.5c-1.8-0.6-3.5-1.3-5.3-1.9
		c0-0.3-0.1-0.5-0.1-0.8c1.5-0.1,2.9-0.3,4.4-0.3c1.2,0,2.9,0.6,3.6,0c0.7-0.6,0.3-2.3,0.3-3.2c2.9-1.6,6-3.3,9-5
		c-0.1-0.2-0.2-0.4-0.3-0.6c-4,0.3-7.9,0.7-11.9,1c-0.9,1.2-1.6,3.4-2.6,3.5c-2.9,0.2-3.6-2.6-4-4.7c-0.1-0.7,1.7-1.8,2.7-2.7
		c-0.8-0.9-1.6-1.7-1.6-1.7c-0.3-2.9-0.6-5-0.8-6.9c1.5-0.5,3.6-1.2,5.7-2c2.1-0.9,4.2-1.9,6.2-2.9c0.2,0.3,0.4,0.6,0.7,0.9
		c-0.9,1.4-1.7,2.8-2.5,4c3.8,0.4,7.5,0.7,11.1,1.1c-0.9,2.3-1.6,4.1-2.4,5.9c0.4,0.3,0.8,0.7,1.3,1c1.4-5.5,4.8-8.4,10-8
		c4.4,0.3,8.7,1.4,13.3,2.2c0-0.2-0.2-1.1-0.5-2.3c1-0.1,2-0.3,4.1-0.5c-3.1-0.9-5.2-1.4-7.2-2c0-0.3,0-0.6,0-0.8
		c1.7,0,3.7-0.6,5,0.1c3,1.7,7.5,1.7,7.9,6.7c0.1,0.8,1.7,1.7,2.7,2c2.2,0.5,4.5,0.6,6.9,0.9c-0.2-0.6-0.4-1.7-0.4-1.7
		c2.3-2.7,4.1-5,5.7-6.9c-1.7-1.5-3-2.5-4.2-3.6c2.2-0.8,4.5-1.6,7-2.4c-3.6-4.4-7.2-9-11.1-13.4c-1.4-1.7-3.4-2.9-5.7-4.7
		c0.4-0.8,1.2-2.3,2-4c-1.6-0.8-3.4-1.7-5.3-2.6c0.2-0.4,0.4-0.8,0.5-1.3c2.6,1.2,5.3,2.2,7.8,3.6c0.4,0.2-0.5,2.5-0.9,4.6
		c4,0.2,8.7,0.5,13.5,0.8c-0.1-1-0.2-2.4-0.3-3.7c-4.4-2-8.7-4-13-6c0-0.3,0.1-0.6,0.1-0.9c2.2,0.1,4.4,0.3,6.6,0.4
		c0.1-0.4,0.2-0.9,0.3-1.3c-2.8-0.9-5.5-1.8-8.3-2.7c1.2,1.6,0.8,2.8-1.1,2.3c-2.1-0.6-4.1-1.9-6.5-3.1c2.4-1,4.2-1.7,6.4-2.6
		c0.2,1,0.3,2,0.5,3.1c1.8-0.8,3.5-1.6,5.3-2.4c-0.1,0.4-0.1,0.8-0.2,1.3c2.7,1,5.5,1.9,8.2,3c1.6,0.6,3.1,1.3,4.6,2.1
		c0.3,0.2,0.1,1.1,0.2,1.8c3,1.3,6.5,2.7,10.3,4.3c0.6-0.3,1.9-0.9,3.2-1.4c-4.6-2.3-9.4-4.6-14.8-7.2c0.7-1.9,1.3-3.5,1.9-5.1
		c2,1.5,4.9-1.7,6.8,1.4c0.4,0.7,2.1,0.7,3.3,0.8c2.2,0.3,4.4,0.4,7.4,0.8c0.3-0.3,1.3-1.2,2.6-2.4c-2.2-1.8-3.5-3.9-7.2-3.2
		c-1.7,0.3-4.2-3.2-6.3-4.9c0.3-0.4,0.6-0.7,0.9-1.1c2,1.4,3.9,2.8,5.9,4.2c4.3-5.2,4.8-5.1,10.3-0.1c1.5,1.4,4.3,1.4,6.6,2.1
		l-0.2,0.2c1.2-1,2.4-2,3.8-3.1c-0.6-1-1.3-2.1-2.3-3.6c1.5-0.1,2.7-0.1,3.8-0.2c0.1-0.2,0.1-0.5,0.2-0.7c-4.1-1.1-8.2-2.3-13.1-3.6
		c1.2-1.2,2-2.1,2.9-2.9c-1.6,0.1-3.2,0.2-4.2,0.2c-1.7-1.4-3-2.6-4.3-3.7c2.8-3.4,2.7-3.2,6.4-0.4c1.2,0.9,3.1,0.7,4.5,1.4
		c1.3,0.6,4,0.9,1.6,3.3c4.3-0.7,7.3,2,10.4,4.2c1.5,1.1,3.2,2,4.5,3.2c2.7,2.5,5.5,2.1,8.6,0.5c-2.2-1.5-6.4,1.3-6.8-3.4
		c-4-2.3-9.8-3.6-11.5-7c-1.9-3.9-5.1-3.5-7.4-5.2s-4.6-3.4-6.8-5.2c-3.2-2.7-6.4-5.6-10.4-9.2c2.3-0.6,4-0.9,6.2-1.5
		c-4.3-1.6-8.1-3.3-12-4.3c-1.5-0.4-3.8,1.8-5,1.3c-1.1-0.5-0.9-3.4-1.9-4.7c-1-1.2-2.3-1.9-3.7-2.8h108.4c2.9,3,5.2,7,10.5,5.7
		c0.5-0.1,1.9,1.1,2,1.8c0.3,4.8,2.4,6,6.3,3.6c2.5-1.5,5.3-0.5,6.8,2c0.7,1.1,2.1,1.8,3.2,2.7c0.3-0.4,0.7-0.8,1-1.1
		c-0.6-0.7-1.3-1.3-2.2-2.3c4.7,0.1,4.9,4.3,6.8,6.6c3.9-4,7.2-3.6,10.5,1.2c0.5,0.7,1.3,1.6,2,1.7c6.9,0.6,11.6,5.5,17.3,8.6
		c0.8,0.5,1.9,0.5,3,0.5c-1.8-1.8-3.7-3.5-5.4-5.5c-0.6-0.7-0.5-1.9,0.2-3.2c3.9,2.8,7.7,5.7,11.6,8.5c-0.1,0.3-0.2,0.7-0.2,1.1
		c-1.5,0-2.9,0-4.3,0c4.4,3.9,8.8,7.9,13.2,11.7c-0.3,0.4-0.6,0.8-0.9,1.1c-4.5-3.4-9-6.7-13.5-10.1c-0.2,0.3-0.4,0.6-0.6,0.9
		c9.3,11.5,23.8,16.4,35.2,25.4c-0.2,0.3-0.4,0.7-0.6,1c-1.7-1.1-3.4-2.1-5.1-3.2c-0.3,0.4-0.6,0.8-0.9,1.3
		c3.9,3.4,7.9,6.8,11.8,10.3c3.6,3.2,7,6.5,9.9,10.4c-2.9-1.6-5.9-3.2-8.8-4.9c-0.3,0.4-0.6,0.7-0.9,1.1c1.7,1.7,3.4,3.4,5.2,5.1
		c4.7,4.7,9.4,9.4,14,14.1c0.5,0.6,0.6,1.6,1,3.1c-2.2-1.1-3.6-1.8-5.6-2.8c0-0.1-0.2-1.1-0.3-1.2c-1.5,0.1-2.8,0.7-3.5,0.3
		c-5.5-3.2-10.9-6.7-16.4-10c-2.2-1.3-4.6-2.2-8-3.9c2.4,4.5,4.1,7.7,5.9,11c-0.5,0.3-1,0.5-1.5,0.8c-0.7-1.3-1.3-2.6-2.1-4.2
		c-1.9,1.6-4.1,3.7-6.5,0c-0.3-0.4-2.3,0.2-3.6,1c6.3,2.6,3.7,8.9,6,13.1c-9.6-2.5-16.2-10.9-25.6-13.7c-0.3,0.5-0.6,1-0.9,1.5
		c6.7,4,13.4,8,20,12.2c1,0.6,1.2,2.3,1.8,3.5c-1.1,0.1-2.6,0.8-3.1,0.3c-3.4-2.9-8.5-2.9-11-7.2c-0.3-0.5-2.2-0.1-3.3-0.1
		c-0.1,0.3-0.2,0.7-0.3,1c2.7,2.3,5.3,4.6,8.3,7.1c0,0.1-0.3,0.7-0.5,1c2.6,2.1,5,4.1,8,6.4c-2.9,0.4-4.8,0.7-7.8,1.1
		c7.5,5.2,13.9,9.6,20.3,13.9c-0.1,0.2-0.2,0.5-0.3,0.7c-0.7-0.1-1.3-0.2-2-0.3c-7.2-2-14.4-4.2-21.7-6c-1.1-0.3-3.1,0.7-3.9,1.8
		c-1.5,1.8-2.6,4-3.5,6.2c-0.3,0.8,0.5,3,0.8,3c5.3-0.3,7.6,4,10.6,6.9c3,2.9,5.6,5.5,10.7,4c-0.5,1.6-0.7,2.6-1.1,3.5
		c-1.1,2.7,0,4.5,2.1,6.2c3,2.4,5.8,5,7.4,6.5c0,5.4,0,9.4,0,13.4c0.2,0,0.4,0,0.6,0.1c0.8-2.6,1.5-5.2,2.2-7.3
		c1.3-0.8,2.4-1.6,3.5-2.3c0.9-0.5,1.9-0.9,2.8-1.4c0.1,1.2,0.6,2.5,0.3,3.6c-0.6,1.9-1.6,3.7-2.8,5.4c-0.8,1.1-2,2.2-3.2,2.6
		c-3.3,1-3.8,2.9-2.4,5.8c1.9,3.9,3.7,7.9,5.7,11.8c0.3,0.5,2.1,1,2.5,0.6c1.5-1.3,3-2.8,4.1-4.5c1-1.5,1.5-3.3,3-4.9
		c0.2,1.8,0.5,3.6,0.6,4.8c3,1.1,5.6,2.4,8.3,3c2.4,0.5,4.6,2.1,7.5,0.1c1.4-1,4.4-0.1,6.6,0.3c1.4,0.2,2.6,1,4,1.6
		c-1.9,2.7-3.8,5.4-5.6,8c0.2,0.2,0.4,0.3,0.6,0.5c2-1.3,4-2.5,5.9-3.8c0.3,0.4,0.6,0.8,0.9,1.2c-2.4,2.1-4.8,4.2-7.6,6.5
		c1.1,0.5,1.8,0.8,2.7,1.2c-1.7,0.7-3.4,1.4-5.1,2.1c0.3,0.5,0.5,1,0.8,1.5c4.2-2.3,8.3-4.7,13.4-7.5c7,2.3,6,0.1,5.6-4.1
		c2-0.6,4-1.7,6-1.7c1.1,0,2.1,1.6,3.2,2.6c-2.5,0.6-4.9,1.1-7.4,1.7c0,0.3,0,0.5,0,0.8c2.3,0.4,4.7,0.8,8,1.4
		c-4.1,1.7-6.9,3.6-10.9,2.1c-3.9-1.5-8.1,2.6-7.2,6.7c0.2,0.8,1.8,1.6,2.9,1.7c1.8,0.1,3.6-0.3,5.6,0.3c-2.4,1.3-4.8,2.6-7.3,3.9
		c0.2,0.4,0.3,0.8,0.5,1.2c2.8-0.7,5.7-2.2,8.4-1.9c2.5,0.2,6.6,0.7,4.8,5.7c7.8-0.7,13.5-4.7,19-9.3c0.7,3.4-5.6,3-3.6,7.1
		c-3.4,2.7-7.1,5.6-10.8,8.5c0.1,0.3,0.1,0.6,0.2,0.9c5-0.8,10-1.5,15-2.3c0.1,0.3,0.2,0.6,0.2,0.9c-0.5,0.3-1,0.5-1.5,0.8
		c-1.6,0.8-5,0.4-3.8,3.3c0.7,1.9,3.2,3.6,5.3,4.3c2.5,0.9,5.3,0.7,8,1c0,0.4,0,0.8,0.1,1.2c-0.8,0.4-1.7,0.9-2.5,1.3
		c1.4,5,2.8,9.8,4.2,15c-1.5,0.5-3.6,1.1-5.7,1.8c0,0.4,0.1,0.7,0.1,1.1c1.5,0.1,3,0.1,4.4,0.5c0.7,0.2,1.7,1.1,1.8,1.7
		c0.1,0.6-0.8,1.5-1.4,1.9c-1.2,0.9-2.6,1.6-4,2.4c-2.1,1.3-6.7-0.7-6.6-3.1c0.1-1,1.7-1.9,2.4-2.7c-1.6-3.3-3.4-7.1-5.3-11
		c-2.5-5.1-6.6-8.1-12.2-8.5c-10.8-0.9-21.5-1.7-32.3-2.1c-4-0.2-8,0.8-12,1.2c-0.1-0.3-0.1-0.7-0.2-1c0.9-0.4,1.8-0.8,2.7-1.3
		c-0.2-0.3-0.3-0.7-0.5-0.7c-3-0.6-6-1.1-9-1.9c-5.6-1.5-9.5,2.5-14.1,4c-3.3,1.1-6.8,1.7-10.2,2.5c-0.3-0.6-0.5-1.2-0.8-1.8
		c2.2-2,4.5-4.1,7-6.4c0.2,0.6,0.2,0-0.1-0.1c-3.8-1-7.6-2.3-11.5-2.8c-3.9-0.5-7.8-0.3-11.8-0.5c-0.5,0-1,0-1.6,0
		c-4.6,0.4-4.6,0.4-7-3.1c-2.3-3.3-9.6-3.2-11,0.5c-1.2,3.3-3.5,3.9-6.6,4.3c0.2,0.8,0.4,1.6,0.6,2.4c-0.3,0.2-0.7,0.4-1,0.6
		c-0.8-1.2-1.6-2.5-2.9-4.4c-0.5,0.6-1,1.7-1.8,2.4c-1,1-2.1,1.8-3.3,2.5c-3,1.8-3.1,3.4,0.2,5.7c-0.4-1.4-0.7-2.4-1-3.4
		c0.3-0.2,0.5-0.5,0.8-0.7c2.5,2,4.8,4.4,7.5,6.1c3,1.8,6.4,2.8,9.5,4.1c0.7,5.2,1.4,10.9,2.2,16.5c0.5,3.2,1.2,6.4,1.7,9.7
		c0.1,0.9,0.1,1.8,0,2.7c-0.6,5.5-1.3,11-1.9,16.4c-0.7,6-1.3,12-1.9,17.9c-0.4,3.9-1.1,7.8-1.3,11.8c-0.2,5.7-0.8,11.6,0.3,17
		c0.6,3.2,0.1,5.6-0.7,8.3c-0.2,0.6,0.3,1.9,0.9,2.3c5.4,3.8,7.1,8.9,6.1,15.3c-0.3,2,0.5,4.3,0.9,6.9c0,0-0.7,0.5-1.4,0.9
		c3.8,5.5,2.7,10.3-2.2,13.4c0.2,1.6,0.9,3.3,0.4,3.8c-3.4,3.6-6.8,7.4-10.9,10.1c-4.5,3-9.6,1.5-14.5-0.1
		c-3.3-1.1-7.1-2.9-10.6,0.1c-0.3,0.2-0.8,0.3-1.1,0.3c-3.5,0-13-7.7-13.9-11.2c-1.3-5.3-5.3-7-9.3-3.3c-2.2,1.9-3.9,1.5-6.1,0.9
		c-1.8-0.5-3.7-0.4-5.6-0.6c0.3,1.9,0.1,4.3,1.1,5.8c2.8,4,4,9.6,9.3,11.2c6.1,1.8,11.2,6,18.1,6.3c2.5,0.1,4.8,3.1,7.2,4.8
		c1.4,1,2.7,2.1,4.6,3.6c0.7,5,13.7,15.2,19.8,14.6c2.2,3.7,5.2,5.6,9.8,5.1c1.5-0.2,3.2,1.4,5.1,2.4c0-0.1,0.3-0.6,0.4-0.9
		c2,3.3,4.2,6.7,6.3,10.1c0.1-2.3,0.3-4.7,0.4-7c0.5-0.1,1-0.1,1.4-0.2c0.4,1.6,1.1,3.3,1,4.9c-0.1,0.9-1.8,1.6-2.7,2.5
		c1.9,0.9,3.6,1.4,5.2-0.8c1.3-1.8,3.1-3.2,4.6-4.8c0.3,0.3,0.7,0.5,1,0.8c-0.2,1.3-0.5,2.6-0.6,3.8c-0.2,2.5,0,4.2,3.3,2.5
		c1-0.5,2.6,0.1,3.5,0.2c1.3-2,2.6-4.1,3.7-5.8c0.8,3.5,1.7,6.4,2.2,9.4c0.2,1.3-0.3,2.8-0.4,4.2c-1.1-0.7-2.1-1.4-3.1-2.2
		c-1.1-0.8-2.4-2.6-3.2-2.3c-1.1,0.3-1.8,2.1-2.8,3.1c-1.4,1.4-2.9,3.5-4.6,3.8c-1.3,0.2-4.3,0.5-4.9-2.9c-0.1-0.7-4.5-0.8-6.9-1
		c-0.1,0-0.4,2.1-0.7,3.5c-2.8-0.2-6.3-0.6-9.9-0.8c-0.8,0-1.7,0.6-2.4,1.1c-5.1,3.5-10.2,7.1-16.7,7.6c-2,0.1-4.6,0.2-6.1-0.9
		c-2.3-1.7-4.8-2-7.2-2c-1.7,0-3.4,1.4-5.1,2.2c0.5,0.9,0.8,1.5,1.4,2.5c-4.1-1.3-7.5-2.1-10.4,1.3c-0.3,0.4-1.5,0.6-1.8,0.3
		c-5.9-4.4-12.8-2-19.2-2.8c-7.2-0.8-14.5-1-21.7-1.3c-3.1-0.1-6.2,0-9.3,0c-0.9,0-1.8-0.3-3.6-0.7c-3.4,1.7-10.1-0.9-12.3,6.1
		c4.7,4.3-5.9,5.3-1.9,10.1c0.4-0.1,1.5-0.1,2.5-0.4c7.7-2.4,15.1-5.8,23-7.1c6.8-1.1,14,0,20.9,0.2c11.5,0.4,22.9,0.8,34.4,1.2
		c7.6,0.3,15.3,0.7,22.9,1c2.5,0.1,5,0,7.5-0.3c5-0.5,10.1-2,15-1.4c5.1,0.6,10-0.2,15,0c3,0.1,5.9,2.7,9.9,4.7
		c-3,0.5-5.3,0.5-7.1,1.3c-4,1.9-7.6,4.4-11.5,6.4c-1.8,0.9-4,1.2-6,1.8c-3.9,1.2-7.8,2.4-11.7,3.6c-0.4,0.1-0.8,0.3-1.2,0.3
		c-6.8,0.2-13.5,0.3-20.3,0.4c-4.4,0.1-9,1-13.2,0.2c-8.5-1.5-17.7,1.7-25.7-4.2c-2-1.5-5.6-0.9-8.5-0.9c-1,0-1.9,1.5-2.2,1.7
		c4.2,3,7.7,6.2,11.8,8.2c3.6,1.8,6.4,5,11.2,5.2c2.7,0.1,6.6-0.2,8.7,3.1c0.2,0.3,1,0.6,1.4,0.5c3.2-1,6.2,0.1,9.3,0.3
		c5.8,0.3,11.5-0.1,17.3-0.1c0.6,0,1.4,0.1,1.9,0.4c3.4,1.8,6.9,2.7,10.9,2.1c1-0.2,2.5,1.1,3.3,2.1c1.6,2.1,3,4.5,4.7,7.4
		c0.9-1.4,1.4-2.2,1.5-2.4c-1.3-1.6-2.5-3-4.3-5.2c5.6,0.7,6.6,1.2,7.6,4.2c0.8,2.5,1.3,5.1,1.2,7.9c1.1,2,4.4,3.2,1.9,6.5
		c1.4,0.7,2.6,1.4,4,2.1c0.1-1.9,0.2-3.8,0.3-6c-1-0.3-2-0.6-2.9-0.8c-0.2-2-0.3-4-0.5-6.1c0.7-1,1.2-2.7,2.4-3.2
		c1.4-0.7,3.5-0.8,5-0.4c4.4,1.1,7.8-0.6,8.5-4.4c1.9-0.5,3.7-0.9,5.8-1.4c0.6,1.4,1.4,3.3,2.3,5.1c0.2,0.4,1.5,0.9,1.5,0.8
		c0.5-0.7,1.3-1.6,1.1-2.2c-0.9-3,0.1-4.9,3.1-5.2c1.7-0.2,3.5,0.4,5,1c1.8-0.2,3.5-0.4,5.9-0.7c-0.8,2.1-1.3,3.2-1.8,4.4v0.1
		c1.3-1.5,2.8-2.9,3.9-4.5c0.8-1.1,1.2-2.6,2-4.5c1.9,1.3,3.2,2.2,4.7,3c0.6,0.3,1.8,0.7,2.1,0.4c0.6-0.5,1.1-1.8,0.9-2.3
		c-1.2-2.6,0-6.4-3.6-8c-0.4-0.2-0.5-1.6-0.3-2.1c2-4.1-0.8-6.6-3-9.3c-1.1-0.6-2.1-1.2-3.2-1.8c0-3.4,0-6.8,0-9
		c2.2,0.4,5.7,1.1,10.1,1.9c-0.9-2.1-1.4-3.3-1.8-4.1c1.9-2.1,3.7-4.1,5.5-6c-0.2-0.3-0.4-0.5-0.6-0.8c-1.8,1.3-3.5,2.6-5.4,4
		c-2.7-3.9-5-7.7-10.6-5.9c-1,0.3-3.2-0.6-3.4-1.3c-0.9-3.6-0.9-7.5-1.8-11.1c-1.4-5,3.8-8.7,2.4-13.8c-0.5-1.8,1.2-4.1,2.2-7.2
		c4.2,8,8.1,15.4,12,23c0.6-0.3,1.3-0.8,2.1-1.3c0.1,0.1,0.3,0.3,0.4,0.4c-0.9,1-1.8,1.9-2.7,2.9c2.1,2.6,4.1,5.2,6.2,7.7
		c2.7-0.9,5.1-1.8,7.8-2.8c0.4,2,0.8,4,1.3,6.3c1.5-0.9,2.7-1.6,4-2.4v-0.2c-0.1-0.2-0.1-0.4-0.2-0.6c0.6-5.4,0.1-10.5-3.6-14.9
		c-0.1-0.2,0.7-1.1,1.3-2.1c-3.4-0.2-3.7-2.2-3.9-5.1c-0.5-4.9-4-8.5-7.1-12.2c-7.7-9.3-14.8-19.2-19.6-30.3
		c-1.3-2.9-3.2-4.9-4.6-7.5c-0.8-1.5-4.5-3.2-0.2-5.2c0.2-0.1-1-3.3-1.6-5.2c-4.1,3.2-5.7,1.6-9.1-8.4c1.6,0.1,2.9,0.2,5.3,0.3
		c-2.8-5.2-5.3-10.3-0.8-14.8c-2.2-0.9-5.1-1.8-5-2.2c0.3-2.6,0.9-5.4,2.3-7.6c2.1-3.3,5-6.1,7.8-9.4c-1.5-0.9-2.3-1.4-3.3-2
		c3.2-1.9,5.6-3.5,2.7-7.4c-1-1.4-1.4-4.4-0.5-5.7c2.4-3.8-0.5-7-0.4-10.5c0.1-2.7,1.5-5.8-1.6-8c0,0,0.3-0.5,0.4-0.7
		c-2.7-3.7-4.9-7.3-7.5-10.5c-2.4-3.1-5.2-5.8-8.3-9.2c2.2-7.1,0.4-12-6.9-17c-0.9-0.6-1.8-3-1.3-3.7c4.4-6.4,10.3-11.3,17.2-14.9
		c1.3-0.7,3.2-0.2,4.8-0.1c-2.8,2-5.4,4.2-8.3,5.9c-3,1.6-5.1,3.3-3.8,7.8c5.8-4.7,13.1-3.1,19.3-6.6c3-1.7,8.3-0.5,12.3,0.5
		c8.7,2.1,17.3,3.6,26.1,1.7c5.2-1.1,10.1-3.4,15.2-4.7c3.6-0.9,7.3-0.9,11-1.3c0.6,6.7,1,7.1,7.3,6.6c-0.2,2.5-0.6,4.9-0.6,7.3
		c0,1.2,0.6,2.3,0.9,3.5c0.7-0.8,1.3-1.7,2.1-2.4c0.8-0.8,2.2-2.2,2.4-2c3.3,2.6,7.5,0.7,10.9,2c1,0.4,2,1.1,3.2,1.9
		c-2.2,1.1-4,2-6,3c0.1,1.1,0.7,2.8,0.2,4.2c-0.5,1.3-2,2.3-3.2,3.1c-0.4,0.3-1.9-0.3-1.9-0.6c-0.2-1.3-0.1-2.7,0-4.1
		c0.1-0.8,0.5-1.5,0.7-2.3c0,0-0.9-0.5-1-0.3c-0.7,0.6-1.7,1.3-1.7,2c-0.1,2.5,0.1,5,0.2,7.1c-2.2,1.7-4.4,3.1-6.3,4.9
		c-0.3,0.3,0.3,2.2,0.9,2.9c1,1.1,3.5,1.9,3.6,2.8c0,2.7-0.9,5.3-2,7.8c0,3.2,0,6.4,0,9.8c-0.4,0.2-1.4,0.6-3.2,1.5
		c4.1,1.8,4.8,3.7,2.4,6.8c-0.4,0.5,2.2,3.5,3.8,5.8c-3.8,3.7-1.6,9.6-2.2,15.3c-1.8-2.8-3.7-5.5-5.5-8.3c0,0-0.2,0.1-0.5,0.2
		c3.4,6.2-1.6,11.3-2.4,17.3c-0.7-0.2-1.4-0.3-1.6-0.4c-1.5,1.6-2.9,3-4.2,4.4c0.3,0,0.7,0,1,0c-0.1,1.3,0,2.7-0.3,4
		c-0.5,2.1-1,4.3-1.7,6.3c-1.6,4.9-3.2,9.8-5.1,14.6c-0.6,1.4-2.3,2.3-3.1,3.9c0.9-0.3,1.7-0.7,3.2-1.2c-0.8,3-1.5,5.4-2.3,8.3
		c-0.9-0.8-1.5-1.4-3.1-2.9c-1.8,5-3.4,9.6-5,14.3c2.9,1.4,1.8,3.6,1.1,5.7c-0.4,1-1,1.9-1.2,2.9c-0.2,1.5-0.1,3-0.1,4.5
		c1.4,0,2.8,0,4.5,0c0,0.8,0,2,0,3.2c1.3,1,2.5,2,3.8,3c-0.9,3-4.1,6.1,0.2,8.1c-1.4,2.4-2.8,4.7-4.1,6.9c0.2,0.2,0.4,0.4,0.6,0.6
		c0.6-0.4,1.1-0.9,1.8-1.1c1.6-0.4,3.2-0.7,4.8-1.1c0.3,1.9,1.6,4.3,0.8,5.7c-1.1,2-2.1,3.5,0,5c2.4,1.6,3.5-0.4,4.6-2.2
		c0.4-0.6,0.9-1.2,1.7-1.6c-0.9,3.2-1.8,6.5-2.8,9.7c-0.1,0.4-0.4,0.9-0.7,0.9c-4.3,1-3.1,4.1-2.6,7.4c1.2-4.2,3.9-6.2,8.4-5.2
		c-1,2.7-0.1,6.4-4.2,8c-0.6,0.2-1,2-0.8,3c0.3,2.8,1,5.6,1.5,8.8c-1.9,1.8-4,3.8-2.3,7.5c0.4,0.7-1.1,3-2.3,3.6
		c-0.9,0.5-2.6-0.4-4.7-0.9c-1.3,1.9,1.9,7-3.8,8c1.4,1.7,2.6,3,3.8,4.4c-1.1,5.2-5.4,6.8-9.7,8.3c0.9,4.5-0.4,7.3-4.3,9.8
		c-0.9,0.6-1.2,2.1-1.5,3.3c-1.3,4.3-2.9,4.8-6.2,1.7c-0.5-0.4-1-0.7-1.7-1.2c-1.8,2.2-2.9,6.7-7.2,2.4c0.3,1.4,0.6,2.8,1,4.6
		c-2,0.8-2.3,2.1-0.8,4.5c0.9,1.4,1.5,3.9-1.2,5.3c-0.8,0.4-1.1,1.8-1.7,2.8c-6.7-3.1-6.8-3.1-6.6,2.6c-2.4-1.8-5.2-3.9-8.9-6.6
		c0.7,5.1,1.3,9.4,1.9,13.8c0.3,0,0.5,0.1,0.8,0.1c0.2-0.5,0.4-0.9,1.1-2.5c0.5,2.2,0.7,3.4,1,4.6c-1.2-0.2-2.7,0-3.6-0.6
		c-1.9-1.3-3.5-3.1-5.9-5.2c0.5,6.3,0.9,12,1.3,17.6c-3.4-0.7-5.8-1.2-8.3-1.7c0.7,6.2,0.5,6.5-5.3,7.9c1.1-2.3,2-4.4,3-6.4
		c-2.5,1.6-5.1,3.1-8.7,5.3c1.2-1.7,1.7-2.9,2.5-3.6c3.9-3.2,4.7-6.9,2.8-11.8c-0.6-1.6-0.1-3.5-0.1-6.1c0.1,0.1-0.7-0.4-1.8-1
		c1-1.4,1.9-2.7,2.8-4c-0.5,0.4-0.9,0.8-1.4,1.2c-1-1.6-2.1-3.2-3.1-4.7c0.8,3.8,0.3,6.7-4.2,8.6c-2.4,1-4.4,4-5.4,6.6
		c-0.9,2.4-1.2,4.3-4.3,3.1c-0.1,6.3-1.8,10-5.3,13.5c2.1-0.3,4.2-0.7,6.6-1c0.5,3.7-2.8,3.2-4.7,4.1c-2.9,1.3-6,2.4-9.1,3.3
		c-1.1,0.3-2.8,0.1-3.7-0.6c-2.1-1.6-3-1.3-5,0.7c-3.4,3.4-7.5,7.2-11.9,8.3c-5,1.2-10.8-0.4-16.2-1c-1.3-0.1-2.3-1.7-3.7-2
		c-2.2-0.6-4.7-1.1-4.2,3.2c-2.8-0.7-5.2-1.4-7.7-2.1c-0.5,1.7-0.8,3.1-1.1,4.1c-8.4-5.9-17.3-8.3-26.2-7.7c-3.4-3-6.2-5.8-9.3-8.2
		c-2.1-1.7-4.7-2.8-6.9-4.5c-1-0.8-1-3-2.1-3.6c-5.8-3.4-10.1-8.6-15.5-12.4c-1.3-0.9-3.3-1.5-4.9-1.4c-2.2,0.1-4.3,0.8-5.4-1.9
		c-0.1-0.2-0.3-0.5-0.5-0.6c-3.5-1.4-6.9-3.5-10.6-4c-3.9-0.6-5.7-2.6-6.7-4.6c-4.2,1.2-8.3,2.3-12.4,3.4c0,0.5-0.1,1-0.1,1.5
		c-2.3-1.8-4.6-3.7-7.3-5.8c-0.3,1.6-0.4,2.5-0.6,3.8c-3.5-5.3-6.7-10.2-9.9-15.2c0.2-0.4,0.4-0.7,0.6-1.1c2.7,0.8,5.4,1.5,8.1,2.3
		c-2.7-3.5-0.3-10.9-8.1-10.9c0,0.6,0.1,1.3,0.1,1.9c-1.7,0-4.1,0.6-4.8-0.2c-1.7-1.8-2.7-4.4-3.7-6.8c-1.2-2.7-2.1-5.4-3.1-8.1
		c-0.3-0.9-0.3-2-0.5-3.7c1.8,0.9,3,1.6,4.3,2.2c-7.4-8.8-12.6-18.6-13.7-30.6c0.7,0,1.7,0,2.6,0c-0.7-2.3-1.3-4.5-2.3-8
		c-0.5,1.3-0.7,2-1,2.7c-0.3,0-0.6,0-0.8,0.1c-1.1-4.4-2.1-8.8-3.3-13.6c0.7,0.1,1.4,0.3,1.7,0.3c0.9-1.8,1.8-3.6,2.7-5.3
		c0,0-0.1,0-0.1,0.1c0.6-2.5,1-4.7-2.7-5.4c-1.3-0.3-2.3-2-3.6-3.1c1.3-1,2.2-1.7,3.5-2.7c0.2,0.9,0.4,1.7,0.7,2.5
		c0.2,0,0.5,0.1,0.7,0.1c0.2-1.3,0.8-2.7,0.4-3.8c-1.7-4.7-4.1-9.2-5.5-14c-0.7-2.4,0.3-5.2,0.3-7.8c0.1-2.9,0.6-5.9-0.2-8.5
		c-0.7-2.5-1.3-4,2-5.2c-1.3-0.4-2.5-0.8-3.4-1.1c-3.6-3.2-0.3-10-6.8-11.4c1.3-2.4,2.8-4.9,4-7.5c1.9-4.3-4.4-4.1-4.3-7.5
		c4.4-1.1,4.5-1.7,1.5-7.1c0.9-0.6,1.8-1.3,2.9-2.1c-2.9-4.3-0.2-6.1,2.1-7c3,2,5.4,3.6,7.8,5.2c0.3-0.4,0.6-0.7,0.9-1.1
		c-1.3-1.9-3.1-3.7-3.7-5.8c-0.6-2,0.1-4.4,0.2-6.1c-2.5,0-4.7,0-6.9,0c-0.5-2.7-1-5.2-1.5-7.9c2.4-1.2,3-4,0.6-6.8
		c-2.7-3.3-5.8-6.1-4.7-11.1c0.4-2-3.8-5.2-6-4.9c0.3-5.4,0.6-10.9-3.1-15.6c2.3-1.5,2.5-4.8,0.3-7.7c-1-1.3-1.5-3-2.4-4.3
		c-1.4-2.1-2.7-4.5-4.7-5.9c-0.9-0.6-3.4,1.1-5.6,1.9c-2.7-3.2-3.4-10.2-11.1-10.3c-2.6,4.8,2.9,9.3,1.9,14.2
		c-0.6,0.5-1.2,1-1.8,1.6c-0.2-0.9-0.1-1.9-0.5-2.8c-0.7-1.5-0.5-4-3.5-3.5c-0.1,0-0.7-2.5-1.2-4.4c0.2,0-0.6-0.1-1.4-0.2
		c0.8-1.2,1.5-2.2,2.2-3.2c-0.1-0.1-0.3-0.2-0.4-0.4c-2,1.2-4.1,2.5-6.1,3.7c-0.3-0.4-0.6-0.8-1-1.2c-0.7,1.8-1.3,3.6-2.3,6.2
		c1.3-1,1.9-1.4,2.9-2.2c-1.5,9.5-6.6,18.9,1.8,27.9c-3.8,0-4.3,1.5-4,4.5c1,9.6,1.5,19.3,2.5,28.9c0.5,5.6,1.7,11,2.4,16.6
		c0.4,3.4-1.9,5.1-5.5,4.7c-6.4-0.8-11.4-3.6-15-9.1c-2.1-3.2-5.3-5.6-7.7-8.6c-1.3-1.6-1.8-3.8-2.9-5.5c-0.6-1-1.7-1.6-2.5-2.4
		c-0.2-0.4-0.5-0.7-0.7-1.1c-4.5-12.9-9.4-25.7-13.3-38.8c-1.9-6.4-1.5-13.4-3-20c-1.6-7-4-13.7-6.2-20.5
		c-2.2-6.5-4.8-12.9-6.9-19.5c-0.7-2.1-0.4-4.4-0.7-7.9C61.6,236.9,64.4,240.2,67.4,243.3z M189.1,77.4c0.4-1.4,0.6-2.8,0.9-4.3
		c3.7,0.5,8.1,0.9,9,6.5C195.4,78.8,192.2,78.1,189.1,77.4z M214.6,17.7c0-0.3,0.1-0.6,0.2-1c2.6,0.5,5.2,1.1,7.9,1.6
		c-0.1,0.4-0.1,0.9-0.2,1.3C219.1,21.7,217.4,17.5,214.6,17.7z M414.3,153.5c-1.4,0.5-2.8,1.1-4.3,1.7c-0.3-0.5-0.6-1-0.8-1.5
		c1.2-1,2.5-2,3.7-2.9C413.4,151.7,413.8,152.6,414.3,153.5z M444.6,257.9c-1.7,1.2-3.2,3-4.9,3.3c-1.1,0.2-3.6-2-3.6-3.1
		c0-3,2.8-3.6,5.2-3.5c1,0,2,1.1,3.1,1.7C444.5,256.8,444.5,257.4,444.6,257.9z M422.6,250.7c3.3,1.5,2.8,5.1,2.9,8.6
		c-3.4-1-7.1-1.2-7.6-5C417.8,253.3,421.7,250.3,422.6,250.7z M408.9,254.3c1.6-1.3,3.1-2.7,4.8-3.8c3-1.9,6.2-3.5,9.6-4.8
		C419.3,250,414.8,253.3,408.9,254.3z M403.4,447.6c0.7-0.2,1.3-0.3,1.9-0.3c0.3,1.9,0.7,3.8,0.8,5.7c0,0.1-1.3,0.4-2,0.6
		C403.9,451.6,403.7,449.6,403.4,447.6z M507.2,315.8c-2.2-4.2-4.1-8.1-6.1-11.9c0.3-0.1,0.6-0.3,1-0.5
		C503.1,307.8,511,308.9,507.2,315.8z M497.8,295.9c-2-1-3.3-1.6-5-2.4c1.8-2.2,3.3-4.1,5.1-6.3C501.3,290.3,496,292.6,497.8,295.9z
		 M490.8,316.3c5.6,1.4,5.6,1.4,6.2,6.9c-1.7,0.3-3.4,0.5-5.8,0.7c1.1-1.5,1.9-2.4,2.5-3.2C492.8,319.4,492,318.1,490.8,316.3z
		 M383.6,721.3c3.7-2.6,7.5-5.2,10.8-8.2c3.4-3,7.4-6.2,5.4-12c-1.8,0-3.4,0-4.1,0c1.3-5,2.6-10.2,4-15.5c2.5-2.2,5.5-5,9.2-8.3
		c0.3,2.5,0.4,4.1,0.7,6.4c2.8-3.6,5.1-6.6,7.5-9.7c-0.2-0.4-0.3-0.6-0.4-0.6c-14.3-11.2-28.5-22.5-42.8-33.6
		c-0.9-0.7-2.3-0.7-3.4-0.7c-9.4,0.2-18.9,0.5-28.3,0.8c-1.2,0.1-2.7,0.3-3.5,1c-16.4,15.5-32.6,31.2-48.9,46.8
		c-1.6,1.6-3.1,3.4-5.2,5.7c8.7,2.9,16.4,6.1,24.5,8.2c12.6,3.2,23,9.6,31.6,19.1c0.6,0.6,1.9,1.8,3,2.4l-154.2,1l-0.3-2
		c-1.5-7.3-3.3-16.4-4.8-23c-6.1-26.3-11.9-52.6-18.5-78.7c-2.8-10.9-7.4-21.4-10.8-32.1c-4.7-15-10.1-29.9-13.2-45.3
		c-4-19.7-6.2-39.7-9.2-59.6c-1.9-15.1-1.3-30.1,1.3-45.1c0.1-0.7,0.2-1.3,0.3-2c0.1-0.2,0.4-0.4,1-0.9c0.5,1.5,0.9,2.8,1.2,4.1
		c5.1,18.7,11.6,36.8,20.9,53.9c7.7,14.1,16.6,27.4,26.7,39.8c9.2,11.2,18.4,22.5,28.7,32.7c6.8,6.8,13.4,14.5,23.3,17.5
		c0.4,0.1,0.8,0.3,1,0.6c2.4,3.1,5.3,5.1,9.1,3.7c2.2,7.6,8.1,10.9,13.8,14.4c-1.3-2.1-2.6-4.3-4.4-7.1c1.5-0.1,3-0.7,3.8-0.2
		s1.2,2,1.4,3.2c0.2,0.9-0.1,1.8-0.2,2.8c1.9-0.7,3.9-1.4,6.2-2.3c0.1,2.1,0.2,3.4,0.2,4.7c0.2-0.1,0.5-0.3,0.7-0.4
		c0.6,1,1.1,2,1.7,2.9c0.5,0.6,1.1,1.4,1.7,1.6c5.5,1.7,8.2,6.3,11.5,10.4c1.1,1.4,2.9,2.4,4.6,3c5.2,1.8,10.6,2.9,15.5,5.2
		c2.5,1.2,4.2,4.2,6.3,6.4c-0.2,0.3-0.3,0.6-0.5,0.9c-2.3-1.7-4.7-3.4-7.2-5.2c-0.2,1.4-0.3,2.4-0.5,3.9c14.4,4.9,29.2,9.9,44.7,0.6
		c0,0.4,0.1,0.9,0.1,1.3c-1.1,0.7-2.2,1.5-3.2,2.2c0.1,0.4,0.1,0.8,0.2,1.2c6,0,12,0.3,17.9-0.1c3.4-0.3,6.7-2,10.2-2.6
		c2.9-0.5,6.1,0,9-0.6c9.4-1.9,17.2-6.2,23.6-13.7c4.2-4.9,10.3-8.1,15.4-12.2c4.1-3.2,8.2-6.5,11.9-10c5.7-5.4,11.3-10.9,16.8-16.6
		c3-3.1,5.4-6.6,8.4-9.7c0.9-1,2.6-1.2,4-1.8c0.5,1.5,1.1,3,1.3,4.6s0,3.2,0,5.2c-0.7,0.3-1.9,1-2.4,1.2c0.2,4.9,0.5,9.3,0.6,13.7
		c0,0.5-0.4,1.1-0.3,1.5c0.8,4.6-1.3,7.2-5.4,8.9c-0.5,0.2-0.8,2.8-0.3,3.6c3.7,5,4.9,10.8,5.2,17.3c1.1,0,2.3,0.2,3.4,0
		c2.3-0.6,4.3-1.1,3.1,2.6c0,0.1,2.3,1.6,3.3,1.3c2.3-0.7,4.1-1.9,5,1.8c0.4,1.8,2.5,3.2,3.1,5.1c0.6,2,0,4.3,0.2,6.4
		c0.2,2.1,0.6,4.2,1.1,6.2c0.5,1.9,1.3,3.7,2.1,5.8c4.7-2.7,1.7-8.5,3.9-12.6c0.6,1,0.9,1.5,1.4,2.6c0.5-1.4,1-2.3,1.1-3.2
		c0.2-1-0.2-2.1,0.1-3c0.3-0.9,1.3-1.5,1.9-2.3c0.6,0.7,1.6,1.4,1.8,2.2c0.5,2.2,0.9,4.5,0.9,6.7c0.1,10.1,0,20.1,0.1,30.2
		c0.2,13.5,0.5,27,0.7,40.5c0,1.8,0.2,3.6,0.3,5.9l-112,0.7C381.4,722.4,383,721.7,383.6,721.3z M360.5,653.3
		c-3.3-1.4-6.2-3.5-9.3-5.1c-2.2-1.1-4.5-1.9-6.7-2.8c0-0.4,0-0.9,0-1.3c3.2-0.4,6.3-0.9,9.6-1.3c2.7-0.3,5.3-0.3,8-0.6
		c6.5-0.6,12.3-0.3,17.6,4.8c5.9,5.7,13,10.1,19.3,15.3c2.4,2,4.1,4.8,5.8,6.9c-2.6,1.4-5,2.4-7.1,3.8c-3.4,2.2-6,0.8-8.5-1.5
		C380.7,663.7,371,657.9,360.5,653.3z M137.2,365.5c0.7,0,1.9,0.7,2.1,1.3c0.6,1.9,0.9,4,1.5,6.8c-1.7-0.8-2.4-1.1-3.2-1.5
		c0.8,1.4,1.5,2.8,2.5,4c0.4,0.5,1.5,0.5,1.5,0.5c1,4.4,2.1,8.7,3.1,13.1c-1,0.7-2.1,1.3-3,2.1c-0.7,0.6-1.1,1.5-1.7,2.2
		c-2.8-1.6-3.8-3.5-1.4-6.5c0.7-0.8,1.5-2.1,1.2-2.9c-0.9-3.1-2.4-6-3.3-9.1c-0.3-1,0.4-2.3,0.7-3.5c-0.8-1.8-1.6-3.5-2.1-5.3
		C135,366.5,136.4,365.5,137.2,365.5z M136.1,354.2c0.1-1.4,0.6-2.8,1-4.2c0.5,0,0.9,0.1,1.4,0.1c0.4,1.4,0.7,2.9,1.4,5.3
		C138.1,354.8,136.1,354.5,136.1,354.2z M161,362.2c0.2-0.9,0.9-1.7,1.4-2.6c0.8,0.5,2.1,0.9,2.3,1.7c0.5,1.6,0.4,3.3,0.6,5
		c0,1.4,0,2.9,0,4.9C162.2,368.4,160,366.1,161,362.2z M164.8,389.9c1.3,2.9,2.2,4.8,3,6.6c-0.4,0.4-0.8,0.7-1.3,1.1
		c-1.4-1.2-3-2.4-4.1-3.8C162.3,393.4,163.6,391.9,164.8,389.9z M160.9,495.2c-0.4,0.2-0.7,0.3-1.1,0.5c-1-3-1.7-6.2-3-9
		c-3-6.3-6.4-12.5-9.5-18.7c-0.4-0.8-0.8-1.8-0.6-2.6c-0.1-0.8,0.5-1.7,1.2-2.1c0.3-0.2,1.6,0.5,1.9,1c3.5,8.7,7,17.5,10.3,26.3
		C160.6,492,160.6,493.7,160.9,495.2z M145.2,419.7c-0.6-2.8-1.3-5.7-1.9-8.5c0.5-0.1,0.9-0.2,1.4-0.4c0.8,2.9,1.6,5.7,2.3,8.5
		C146.4,419.4,145.8,419.6,145.2,419.7z M144.7,402.5c0,0.1-0.4,0.2-1.5,0.7c0.6-4.8,1.1-9.2,1.6-13.5c0.5,0,1,0,1.6,0.1
		C145.9,394,145.3,398.3,144.7,402.5z M141.6,402.9c-0.6,0.1-1.3,0.1-1.9,0.2c-1.1-2.7-0.2-5.4,0.3-8.2
		C140.5,397.6,141.1,400.3,141.6,402.9z M289.7,598.2c0.1-0.4,0.2-0.8,0.3-1.2c3,1,6,1.9,9,2.9c-0.1,0.3-0.2,0.6-0.2,0.9
		C295.8,599.9,292.7,599.1,289.7,598.2z M352.7,589.1c2.6-1.4,4.8-2.6,7.1-3.9C359.6,589,359.5,589,352.7,589.1z M173.3,446.7
		c3.3-0.8,3.3-0.8,5.2,2.2C175.4,450.8,175.4,450.7,173.3,446.7z M113.9,787.8c-3.5,24.8-15,41.9-33.3,41.9
		c-18.2,0-24.9-17.1-21.4-41.9c3.5-24.8,15-41.9,33.3-41.9C110.8,745.9,117.4,763,113.9,787.8z M157.1,822.2
		c-5.2,5.1-11.7,7.5-18.3,7.5c-18.5,0-24.7-17-21.2-42.2c3-24.8,15.2-41.6,33.1-41.6c13.3,0,23.4,8.2,20.2,31.5h-19.2
		c1-9-1-10.8-3.5-10.8c-5.4,0-7.2,8.4-8.9,21.2c-1.8,12.1-2.6,21.2,2.7,21.2c2.7,0,4.9-2.4,6.4-10.8H168
		C166.4,809.1,162.3,817,157.1,822.2z M224.9,827.6h-22.7l-7.1-35.7H195l-5.1,35.7h-20.5l11.2-79.6h20.5l-4.8,34.2h0.1L212,748h22.1
		l-19.4,37.5L224.9,827.6z M283.4,827.6l4.2-29.3h-8.9l-4.2,29.3h-21l11.2-79.6h21l-3.7,26.9h8.9l3.7-26.9h21l-11.2,79.6H283.4z
		 M311.8,827.6L323,748h21l-11.2,79.6H311.8z M410.1,827.6h-17.7l8.1-56.9h-0.1l-15.5,56.9h-19.2l0.6-56.9H366l-8.1,56.9h-17.7
		l11.2-79.6h29.1l-0.9,47.4h0.1l12.5-47.4h29.1L410.1,827.6z M467.8,829.7c-16,0-23.8-9.6-21.1-28.8l7.5-52.9h21l-7.3,51.6
		c-0.9,6.3,0.7,8.7,2.9,8.7c2.2,0,4.5-2.4,5.4-8.7l7.3-51.6h21l-7.5,52.9C494.3,820.1,483.8,829.7,467.8,829.7z M532,800.8h-6.9
		l-3.8,26.8h-21l11.2-79.6h30.8c12.7,0,17.2,11.1,15.1,26.1C555.2,790,546.8,800.8,532,800.8z M573.3,827.6h-17.7l2.6-18.1h17.7
		L573.3,827.6z"/>
</g>
</svg>
